<svg xmlns="http://www.w3.org/2000/svg" width="67.549" height="67.289" viewBox="0 0 67.549 67.289">
  <g id="Layer_x0020_1" transform="translate(-0.008 0.021)">
    <g id="_2507931930112" transform="translate(0.008 -0.021)">
      <path id="Path_328" data-name="Path 328" d="M11.695,38.407c-.631,0-1.489-1.548.475-1.78.4-.047.641-.061.974-.109.622-.09,1.557-.322,1.753.588a.827.827,0,0,1-.493.942,14.594,14.594,0,0,1-2.709.359Zm4.964-1.443c0-1.126.746-.952,2.745-1.224.84-.115,2.76-.633,2.76.683,0,.981-1.657.975-2.716,1.074-1.108.1-2.789.643-2.789-.533Zm-1.9-8.658c0-1.3,1.694-.617,1.919-.565.418.1.6.158,1,.259l5.137,1.36a.89.89,0,0,1-.119,1.652,64.811,64.811,0,0,1-6.445-1.587c-.818-.205-1.5-.26-1.5-1.119Zm-3.708-2.066c.335.076.856.2,1.218.315a.888.888,0,0,1-.128,1.751,8.291,8.291,0,0,1-1.3-.324c-.463-.116-.746-.211-1.209-.325-.185-.046-.427-.115-.638-.174-.458-.126-1.275-.119-1.275-1.071a.865.865,0,0,1,.812-.812l2.519.639Zm11.379-2.8c0-.287.46-.631.812-.631.489,0,.865.489,1.152.743.332.3.834.475.834,1.061,0,.47-.109.9-.722.9-.533,0-.772-.2-1.287-.7-.751-.73-.789-.4-.789-1.377Zm-6.5-5.321a.957.957,0,0,1,.9-.9c.553,0,2.951,2.383,3.61,2.886,1.769,1.35.488,2.074,0,2.074-.415,0-2.975-2.361-3.589-2.907-.313-.279-.923-.614-.923-1.151ZM35.61,32a7.654,7.654,0,0,1-7.037-6.677c-.164-2.652.49-5.033,2.6-6.686a20.012,20.012,0,0,1,3.835-2.03A14.9,14.9,0,0,0,39.872,12.9,28.41,28.41,0,0,0,42.61,8.876c.447-.746.886-1.41,1.3-2.13s.877-1.466,1.252-2.176c.131-.248.2-.327.332-.571a8.63,8.63,0,0,0,.857-1.578l-1.916-.7A31.435,31.435,0,0,0,36.964.166c-.472-.012-.682-.093-1.17-.093-.888,0-1.55-.117-2.443-.09L28.725.41a30.671,30.671,0,0,0-9.75,3.063A36.537,36.537,0,0,0,11.708,8.3l-1.044.941a22.329,22.329,0,0,0-1.88,1.909A27.321,27.321,0,0,0,5.45,15.48a32.2,32.2,0,0,0-1.865,3.277c-.262.51-.61,1.215-.812,1.714A44.235,44.235,0,0,0,.665,27.293c-.068.3-.111.715-.184,1.079-.137.691-.169,1.443-.275,2.251A32.591,32.591,0,0,0,1.779,44.438,32.039,32.039,0,0,0,8.515,56.105c.192.206.212.291.4.5a34.505,34.505,0,0,0,6.3,5.342,31.155,31.155,0,0,0,4.936,2.733c.924.4,1.8.764,2.789,1.091a43.99,43.99,0,0,0,6.171,1.5c0-1.809.124-5.659,0-7.21a32.021,32.021,0,0,0-.748-6.468,16.148,16.148,0,0,0-2.46-4.757c-1.43-2.063-2.293-3-2.293-5.825a7.635,7.635,0,0,1,11.011-6.495,17.221,17.221,0,0,1,2.255,1.624,5.9,5.9,0,0,1,5.494-.35,5.2,5.2,0,0,1,1.7,1.184,5.89,5.89,0,0,1-.043,8.39c-.322.306-.673.51-1,.808a7.954,7.954,0,0,0-.925.97,7.027,7.027,0,0,0-.435.558c-.127.195-.209.351-.338.564a9.347,9.347,0,0,0-.641,1.254,9.514,9.514,0,0,0-.483,1.321c-.139.538-.252.965-.346,1.548a32.24,32.24,0,0,0-.374,5.218c0,2.21.137,4.558.064,6.807-.031.943-.173.709,1.223.431.56-.112,1.044-.245,1.529-.366l2.9-.893a35.442,35.442,0,0,0,11.317-6.818,26.986,26.986,0,0,0,3.255-3.421l2.4-3.279a30.179,30.179,0,0,0,2.632-4.946l1.042-2.746a30.41,30.41,0,0,0,1.425-6.152,35.616,35.616,0,0,0,.124-7.5c-.184-1.434-.286-2.651-.605-4.085a30.292,30.292,0,0,0-3.116-8.521c-.151-.259-.241-.491-.4-.778a29.53,29.53,0,0,0-3.828-5.464l-1.4-1.574c-.105-.117-.157-.165-.266-.275l-.758-.686-.049-.041c-.067-.059-.071-.061-.142-.129-.111-.105-.162-.161-.271-.271l-1.2-1.059A9.593,9.593,0,0,0,54.286,9.54l-2.042,3.551c-2.258,3.755-5.007,8.378-3.471,12.972a7.944,7.944,0,0,1,.644,2.332,6.424,6.424,0,0,1-.631,3.248A5.727,5.727,0,0,1,43.552,34.8c-2.215,0-4.67-1.629-5.054-3.066-.55,0-1.387.271-2.888.271Z" transform="translate(-0.008 0.021)" fill="#c73b40" fill-rule="evenodd"/>
      <path id="Path_329" data-name="Path 329" d="M956.88,1786.6c0,.86.679.914,1.5,1.119a64.784,64.784,0,0,0,6.445,1.587.89.89,0,0,0,.119-1.652l-5.137-1.36c-.406-.1-.587-.16-1-.259C958.574,1785.987,956.88,1785.306,956.88,1786.6Z" transform="translate(-942.125 -1758.277)" fill="#fff" fill-rule="evenodd"/>
      <path id="Path_330" data-name="Path 330" d="M1032.97,1118.532c0,.537.61.872.924,1.151.613.546,3.173,2.907,3.589,2.907.489,0,1.77-.724,0-2.074-.659-.5-3.057-2.886-3.61-2.886a.957.957,0,0,0-.9.9Z" transform="translate(-1017.042 -1100.396)" fill="#fff" fill-rule="evenodd"/>
      <path id="Path_331" data-name="Path 331" d="M1079.79,2307.8c0,1.176,1.681.636,2.789.532,1.059-.1,2.716-.093,2.716-1.074,0-1.316-1.92-.8-2.76-.683-2,.272-2.745.1-2.745,1.225Z" transform="translate(-1063.14 -2270.814)" fill="#fff" fill-rule="evenodd"/>
      <path id="Path_332" data-name="Path 332" d="M500.38,1662.382c0,.952.817.945,1.275,1.071.212.059.453.128.638.174.463.114.746.209,1.209.325a8.294,8.294,0,0,0,1.3.324.888.888,0,0,0,.128-1.751c-.363-.12-.884-.24-1.219-.316l-2.519-.639a.865.865,0,0,0-.812.812Z" transform="translate(-492.664 -1635.948)" fill="#fff" fill-rule="evenodd"/>
      <path id="Path_333" data-name="Path 333" d="M710.6,2365.522a14.564,14.564,0,0,0,2.709-.359.827.827,0,0,0,.493-.941c-.2-.911-1.131-.679-1.753-.588-.333.048-.576.062-.974.109-1.964.231-1.106,1.78-.475,1.78Z" transform="translate(-698.918 -2327.094)" fill="#fff" fill-rule="evenodd"/>
      <path id="Path_334" data-name="Path 334" d="M1454.36,1480.891c0,.976.038.646.789,1.376.516.5.754.7,1.287.7.613,0,.722-.432.722-.9,0-.585-.5-.766-.834-1.061-.286-.255-.662-.743-1.152-.743C1454.82,1480.26,1454.36,1480.6,1454.36,1480.891Z" transform="translate(-1431.934 -1457.434)" fill="#fff" fill-rule="evenodd"/>
    </g>
  </g>
</svg>
