<svg xmlns="http://www.w3.org/2000/svg" width="12.557" height="12.557" viewBox="0 0 12.557 12.557">
  <path id="Icon_material-phone-in-talk" data-name="Icon material-phone-in-talk" d="M16.36,13.22a7.925,7.925,0,0,1-2.49-.4.712.712,0,0,0-.712.167l-1.535,1.535a10.5,10.5,0,0,1-4.6-4.6L8.56,8.386a.67.67,0,0,0,.174-.7,7.925,7.925,0,0,1-.4-2.49.7.7,0,0,0-.7-.7H5.2a.7.7,0,0,0-.7.7,11.858,11.858,0,0,0,11.86,11.86.7.7,0,0,0,.7-.7V13.918A.7.7,0,0,0,16.36,13.22Zm-.7-2.442h1.4A6.279,6.279,0,0,0,10.779,4.5V5.9A4.88,4.88,0,0,1,15.662,10.779Zm-2.79,0h1.4A3.489,3.489,0,0,0,10.779,7.29v1.4A2.09,2.09,0,0,1,12.871,10.779Z" transform="translate(-4.5 -4.5)" fill="#ef6331"/>
</svg>
