<svg xmlns="http://www.w3.org/2000/svg" width="17.666" height="20.88" viewBox="0 0 17.666 20.88">
  <g id="Group_6560" data-name="Group 6560" transform="translate(-108.198 -1295.254)">
    <g id="Layer_x0020_1" transform="translate(108.628 1271.694)">
      <g id="_1448163823856" transform="translate(0 24.06)">
        <path id="Path_436" data-name="Path 436" d="M39.188,43.939h14.4a6.979,6.979,0,0,0,1.015-.393,1.757,1.757,0,0,0,.643-.74,5.976,5.976,0,0,0,.246-2.533V26.585c0-.572.151-2.176-.191-2.526H39.05c-.286.306-.194.6-.192,1.141l0,17.846c-.006.788,0,.451.333.893Z" transform="translate(-38.777 -24.06)" fill="none" stroke="#ef6331" stroke-width="1" fill-rule="evenodd"/>
        <path id="Path_437" data-name="Path 437" d="M4904.461,1738.666c-.325-.706-.867-1.51-1.274-2.234a15.046,15.046,0,0,1-.555-3.029,2.818,2.818,0,0,0-2.288,3.672,2.873,2.873,0,0,0,4.117,1.591Z" transform="translate(-4891.917 -1730.512)" fill="#ef6331" fill-rule="evenodd"/>
        <path id="Path_438" data-name="Path 438" d="M1467.729,8452.136h10.836c.307,0,.5,0,.505-.312.007-.38-.283-.335-.587-.335h-10.836C1466.924,8451.489,1466.922,8452.136,1467.729,8452.136Z" transform="translate(-1464.633 -8437.237)" fill="#444242" fill-rule="evenodd"/>
        <path id="Path_439" data-name="Path 439" d="M1444.669,9847.735h10.917c.77,0,.76-.635,0-.635h-10.917C1443.9,9847.1,1443.91,9847.735,1444.669,9847.735Z" transform="translate(-1441.654 -9830.49)" fill="#444242" fill-rule="evenodd"/>
        <path id="Path_440" data-name="Path 440" d="M6695.888,1408.071a2.909,2.909,0,0,0-3.168-2.781,16.131,16.131,0,0,0,.221,2.981A17.9,17.9,0,0,0,6695.888,1408.071Z" transform="translate(-6681.402 -1402.949)" fill="#444242" fill-rule="evenodd"/>
        <path id="Path_441" data-name="Path 441" d="M6806.747,1520.343l2.642-.184a2.7,2.7,0,0,0-2.778-2.449Z" transform="translate(-6795.101 -1515.184)" fill="#fff" fill-rule="evenodd"/>
        <path id="Path_442" data-name="Path 442" d="M5058.344,7058.663h4.808c.773,0,.692-.653,0-.653h-4.808C5057.589,7058.01,5057.573,7058.663,5058.344,7058.663Z" transform="translate(-5049.219 -7046.116)" fill="#444242" fill-rule="evenodd"/>
        <path id="Path_443" data-name="Path 443" d="M1443.477,7058.663h4.4c.751,0,.714-.653,0-.653h-4.4C1442.694,7058.01,1442.728,7058.663,1443.477,7058.663Z" transform="translate(-1440.462 -7046.116)" fill="#444242" fill-rule="evenodd"/>
        <path id="Path_444" data-name="Path 444" d="M6952.325,3455.48a1.192,1.192,0,0,0,.466-.362,2.438,2.438,0,0,0,.7-1.815l-2.595,0Z" transform="translate(-6939.146 -3447.501)" fill="#ef6331" fill-rule="evenodd"/>
        <path id="Path_445" data-name="Path 445" d="M2496.034,2472.943l.906.01.041-3.262h-.95Z" transform="translate(-2491.81 -2465.554)" fill="#444242" fill-rule="evenodd"/>
        <path id="Path_446" data-name="Path 446" d="M1438.229,5797.291c.246-.782-.47-.575-1.9-.575a8.833,8.833,0,0,0-2.571.107c-.7.7,1.483.525,1.838.525A15.6,15.6,0,0,0,1438.229,5797.291Z" transform="translate(-1431.193 -5786.918)" fill="#444242" fill-rule="evenodd"/>
        <path id="Path_447" data-name="Path 447" d="M1601.43,2784.118l.016,2.291.9.041a12.675,12.675,0,0,0-.013-2.687C1601.315,2783.688,1601.43,2783.74,1601.43,2784.118Z" transform="translate(-1598.718 -2779.067)" fill="#444242" fill-rule="evenodd"/>
        <path id="Path_448" data-name="Path 448" d="M1436.929,964.775c1.934,0,2.561.232,2.423-.51a8.662,8.662,0,0,0-2.423-.121C1436.147,964.144,1436.149,964.775,1436.929,964.775Z" transform="translate(-1433.915 -962.534)" fill="#444242" fill-rule="evenodd"/>
        <path id="Path_449" data-name="Path 449" d="M0,43.949H.411c-.33-.441-.339-.1-.333-.893l0-17.846c0-.538-.094-.835.192-1.141H0v19.88Z" transform="translate(0 -24.07)" fill="#cdcdcd" fill-rule="evenodd"/>
        <path id="Path_450" data-name="Path 450" d="M3381.139,3359.956l.023,1.319.9.039a5.7,5.7,0,0,0-.008-1.718,5.893,5.893,0,0,0-.609-.027C3381.087,3359.593,3381.139,3359.594,3381.139,3359.956Z" transform="translate(-3375.419 -3353.927)" fill="#444242" fill-rule="evenodd"/>
      </g>
    </g>
  </g>
</svg>
