<svg xmlns="http://www.w3.org/2000/svg" width="12.978" height="12.708" viewBox="0 0 12.978 12.708">
  <g id="Layer_x0020_1" transform="translate(-0.006 0)">
    <g id="_2126440109392" transform="translate(0.006 0)">
      <path id="Path_297" data-name="Path 297" d="M125.28,2394.772c.031.133.164.146.323.146h11.471c.145,0,.263-.026.291-.146a.283.283,0,0,0-.069-.06l-.578-.536c-.023-.024-.007-.011-.03-.035l-.765-.7c-.028-.024-.037-.035-.068-.061l-1.712-1.6c-.262-.226-.505-.476-.76-.709a4.864,4.864,0,0,0-.428-.379c-.1,0-.15.061-.231.108-.052.03-.048.041-.094.067l-.574.379c-.137.075-.25.188-.388.258l-.1.065a.264.264,0,0,1-.051.029c-.1.058-.179.164-.328.048l-.191-.132a.9.9,0,0,1-.1-.062l-1.068-.709c-.125-.106-.18-.038-.283.065-.127.128-.284.25-.41.381l-.067.063a.618.618,0,0,1-.07.059,1.341,1.341,0,0,0-.14.135l-.434.406-.008.008-.11.1c-.191.162-.36.352-.552.514l-.746.692c-.032.03-.052.039-.079.066l-.338.324c-.238.2-.452.435-.686.639l-.63.582Z" transform="translate(-124.836 -2382.21)" fill="#ef6331" fill-rule="evenodd"/>
      <path id="Path_298" data-name="Path 298" d="M.014,1430.2c0,.705-.024,6.888.011,7.029.015.062.035.089.09.077a.1.1,0,0,0,.044-.017l.573-.527c.124-.125.264-.233.384-.359l.015-.017.608-.554c.093-.092.176-.169.27-.263l.378-.349a.39.39,0,0,1,.035-.03.61.61,0,0,0,.064-.065l.988-.918.008-.008.034-.031.695-.646a.96.96,0,0,1,.133-.125c.122-.084.052-.034.113-.161l-1.97-1.309c-.139-.088-.274-.2-.418-.276l-.144-.1a.287.287,0,0,0-.064-.049l-.356-.226a.38.38,0,0,0-.065-.048l-.145-.1a.552.552,0,0,1-.072-.041c-.179-.132-.4-.251-.559-.378s-.34-.179-.451-.373l-.085-.141c-.028-.056,0-.047-.066-.063-.025.017-.048.021-.048.065Z" transform="translate(-0.006 -1425.07)" fill="#ef6331" fill-rule="evenodd"/>
      <path id="Path_299" data-name="Path 299" d="M2408.41,1433.216c0,.085.151.192.238.279l.953.888c.025.024.046.038.069.06l.743.694c.158.138.319.31.477.443l.612.568c.043.037.029.03.066.064l.434.406.008.008.58.535c.252.256.231,0,.259-.251l-.012-.431c0-2.061-.017-4.123,0-6.184,0-.115.022-.146-.048-.194-.094.025-1.678,1.293-1.863,1.416-.032.026-.035.021-.069.045l-.56.377c-.083.065-.326.2-.42.274l-.559.378c-.114.085-.251.145-.362.236-.081.066-.194.123-.282.186-.046.032-.263.147-.263.205Z" transform="translate(-2399.871 -1425.03)" fill="#ef6331" fill-rule="evenodd"/>
      <path id="Path_300" data-name="Path 300" d="M70.729,5.991c.1,0,.065-.068.065-.129V1.938c0-.063,0-.161.065-.161H79.55c.1,0,.065.356.065.468v3.52c0,.153-.017.329.183.166l.166-.108C80,5.8,80,5.8,80.026,5.788l.793-.532c.186-.129.708-.6.609-.835a1.671,1.671,0,0,0-.485-.647l-.678-.453c-.121-.088-.134-.085-.134-.254V1.437c0-.128.027-.178-.177-.178-.4,0-2.637.026-2.784-.011a.938.938,0,0,1-.251-.137L75.94.459,75.931.452,75.922.445,75.613.237A3.152,3.152,0,0,0,75.236,0a.293.293,0,0,0-.2.077c-.083.069-.176.111-.264.172l-.587.4c-.03.019-.04.015-.075.038a.438.438,0,0,0-.053.044l-.728.483a.808.808,0,0,1-.4.048c-.219,0-2.5-.024-2.6.019-.068.029-.058.067-.054.129.023.313,0,1.212,0,1.548,0,.15.031.247-.091.345-.409.27-1.184.731-1.222,1.181-.029.337.761.861,1.113,1.1.093.08.388.259.507.333.054.033.063.08.146.08Z" transform="translate(-68.717 0)" fill="#ef6331" fill-rule="evenodd"/>
      <path id="Subtraction_2" data-name="Subtraction 2" d="M-4249.424,1119.977a3.764,3.764,0,0,1-.534-.05,1.394,1.394,0,0,1-.285-.059l-.1-.028-.228-.08-.58-.34a.4.4,0,0,0-.048-.036c-.012-.008-.024-.016-.037-.025a1.273,1.273,0,0,1-.22-.246l-.021-.029-.05-.064-.15-.238a.11.11,0,0,0-.017-.025.1.1,0,0,1-.017-.023l-.127-.324a.78.78,0,0,0-.039-.126.637.637,0,0,1-.034-.109,3.848,3.848,0,0,1-.049-.563,3.974,3.974,0,0,1,.05-.563.667.667,0,0,1,.034-.123,1.05,1.05,0,0,0,.034-.115l.124-.329c.007-.013.013-.023.02-.033a.443.443,0,0,0,.033-.058l.1-.189a.309.309,0,0,1,.035-.049.317.317,0,0,0,.033-.043l.191-.245.04-.04.021-.021a1.863,1.863,0,0,1,.345-.294l.017-.009a.113.113,0,0,0,.024-.018l.007-.006.131-.078a.158.158,0,0,0,.036-.025.161.161,0,0,1,.053-.032.361.361,0,0,1,.048-.017.21.21,0,0,0,.067-.029.145.145,0,0,0,.033-.024c.01-.009.013-.012.063-.027l.045-.012a.372.372,0,0,0,.066-.021,2.7,2.7,0,0,1,.609-.134h.275a2.084,2.084,0,0,1,.462.041c.073.017.12.026.155.032a1.243,1.243,0,0,1,.257.073.675.675,0,0,0,.079.022.374.374,0,0,1,.116.041c.028.016.067.035.119.06a1.89,1.89,0,0,1,.348.2l.008.007.236.217a1.156,1.156,0,0,1,.205.278,1.156,1.156,0,0,0,.062.1.244.244,0,0,1,.042.1.331.331,0,0,0,.033.087.293.293,0,0,1,.052.146c0,.018.005.039.01.066.027.146.044.208.054.245a.608.608,0,0,1,.012.236c0,.051,0,.116,0,.2l-.09.445-.16.355a1.363,1.363,0,0,1-.2.288l-.3.269c-.031.02-.06.042-.088.064a.675.675,0,0,1-.153.1l-.036.013a.334.334,0,0,0-.058.023c-.019.01-.028.016-.037.021a.187.187,0,0,1-.048.025l-.312.077a.582.582,0,0,1-.086.006.725.725,0,0,1-.478-.181l-.145-.114a.5.5,0,0,1-.187.153l-.021.01c-.013.006-.013.006-.016.009l-.022.018a.951.951,0,0,1-.336.1l-.023,0c-.04,0-.068.006-.1.006a.527.527,0,0,1-.074-.006.478.478,0,0,1-.1-.024c-.019-.006-.039-.013-.066-.02a.727.727,0,0,1-.3-.14.946.946,0,0,1-.346-.527l-.07-.366a1.439,1.439,0,0,1,.048-.469v-.005l0-.019.017-.081a1.329,1.329,0,0,1,.082-.255l.024-.06,0-.012a1.608,1.608,0,0,1,.206-.344l.152-.171a.827.827,0,0,1,.274-.188l.02-.009.04-.019a1.09,1.09,0,0,1,.409-.087h.032a.944.944,0,0,1,.514.149.284.284,0,0,1,.031.03l0,0c.025.028.051.057.084.057.066,0,.071-.016.079-.042a.128.128,0,0,1,.047-.075s.121-.068.125-.069a.534.534,0,0,1,.164-.025.41.41,0,0,1,.3.109c.116.123.039.392-.023.609-.02.071-.038.135-.047.185a.362.362,0,0,1-.028.089.5.5,0,0,0-.021.055,1.056,1.056,0,0,0-.031.137.938.938,0,0,1-.044.178,2.062,2.062,0,0,0-.085.5.229.229,0,0,0,.21.242.479.479,0,0,0,.317-.135,1.453,1.453,0,0,0,.105-.12.237.237,0,0,0,.025-.043l0-.007.012-.022a.212.212,0,0,1,.025-.037.176.176,0,0,0,.022-.03l.194-.483a1.478,1.478,0,0,0-.047-.78.433.433,0,0,1-.035-.08.426.426,0,0,0-.058-.117.987.987,0,0,1-.059-.1.72.72,0,0,0-.151-.191,1.063,1.063,0,0,0-.233-.189l-.009-.006-.077-.051-.091-.057a.682.682,0,0,1-.092-.044l-.036-.02-.275-.1-.478-.072a3.52,3.52,0,0,0-.492.044l-.07.01-.368.116a.14.14,0,0,0-.029.021.148.148,0,0,1-.049.029.341.341,0,0,1-.036.012.22.22,0,0,0-.046.018l-.152.089a.238.238,0,0,0-.038.028.272.272,0,0,1-.035.029,2.3,2.3,0,0,0-.286.249l-.032.031a.141.141,0,0,0-.033.039.306.306,0,0,1-.024.034l-.189.3a1.423,1.423,0,0,0-.147.438l0,.01a.581.581,0,0,1-.024.079.47.47,0,0,0-.029.11,2.593,2.593,0,0,0,0,.722.558.558,0,0,0,.024.089l0,.007c.008.023.017.049.024.08a1,1,0,0,0,.066.211c.013.028.027.061.049.126a1.665,1.665,0,0,0,.506.624c.03.018.059.038.087.058l0,0a.992.992,0,0,0,.19.11,2.862,2.862,0,0,0,.515.163,4.007,4.007,0,0,0,.533.036,2.293,2.293,0,0,0,.612-.07.936.936,0,0,1,.119-.025.7.7,0,0,0,.157-.038c.052-.022.1-.04.143-.057a1.562,1.562,0,0,0,.313-.15.408.408,0,0,1,.05-.026.267.267,0,0,0,.055-.031l.082-.061a1.307,1.307,0,0,1,.423-.257.27.27,0,0,1,.228.226c0,.114-.1.2-.189.28-.025.021-.048.042-.068.061l-.112.1a.556.556,0,0,1-.063.042.634.634,0,0,0-.055.034,2.195,2.195,0,0,1-.308.179l-.062.032a.486.486,0,0,1-.09.034l-.009,0-.044.014c-.017.007-.033.015-.048.023a.368.368,0,0,1-.087.036c-.028.007-.05.01-.071.014a.477.477,0,0,0-.088.02c-.022.007-.038.014-.053.021a.4.4,0,0,1-.091.029c-.075.014-.166.024-.245.033l-.1.011A2.922,2.922,0,0,1-4249.424,1119.977Zm-.2-3.383a.493.493,0,0,0-.306.118,1.009,1.009,0,0,0-.33.542,1.662,1.662,0,0,0-.046.406v.011c0,.308,0,.463.245.649a.337.337,0,0,0,.211.074.815.815,0,0,0,.629-.554l.023-.066a1.226,1.226,0,0,0,.087-.534.755.755,0,0,0-.072-.349l-.036-.056c-.051-.081-.054-.086-.175-.168A.407.407,0,0,0-4249.626,1116.594Z" transform="translate(4256.067 -1112.59)" fill="#ef6331"/>
    </g>
  </g>
</svg>
