<svg xmlns="http://www.w3.org/2000/svg" xmlns:xlink="http://www.w3.org/1999/xlink" width="64.59" height="36.894" viewBox="0 0 64.59 36.894">
  <defs>
    <clipPath id="clip-path">
      <path id="Path_311" data-name="Path 311" d="M64.59,0H0V36.894H64.59Z" fill="#444242" clip-rule="evenodd"/>
    </clipPath>
  </defs>
  <g id="Group_6422" data-name="Group 6422" clip-path="url(#clip-path)">
    <g id="Group_6421" data-name="Group 6421" transform="translate(1.436 1.863)">
      <path id="Path_306" data-name="Path 306" d="M421.537,55.939c9.856,2.31,6.028,16.509-3.313,14.179a7.282,7.282,0,0,1,3.313-14.179Zm-.612,3.287c5.387,1.3,3.1,9.1-2.076,7.593C414.122,65.444,416.029,58.041,420.926,59.226Z" transform="translate(-377.959 -55.755)" fill="#444242" fill-rule="evenodd"/>
      <path id="Path_307" data-name="Path 307" d="M386.116,556.486l-4.275,12.58c-.725,2.156-1.355,2.445-3.309,1.719-.573-2.254,2.7-10.408,3.886-13.9.576-1.7.7-3.479,2.488-3.709,3.325-.429,8.771.918,11.256-.951,3-2.259,2.194-5.948,2.194-10.381,0-4.053.045-8.13.012-12.179-.049-5.985-5.1-5.127-6.937-3.831-1.553,1.1-3.589,5.551-4.825,7.325-1.948,2.795-8.047-.541-10.2,2.178-.145,2.8,2.006,2.2,4.326,2.2,7.979-.025,6.5,1.089,9.721-4.367.9-1.521,1.472-3.764,3.916-3.138,1.851,2.544-1.6,4.017-1.675,7.05-.065,2.771.356,7.907-.181,10.343-1.9,1.779-6.433.279-9.4.89-3.233.667-5.943,17.5-9.086,22.686-4.783.9-1.826-4.5-1.019-6.9,1.055-3.137,4.738-15.633,6.394-17.349,2.5-2.59,5.786-1.8,9.975-1.838l0-4.616c-4.256,1.313-29.025.564-35.529.564,0,1.516.18,28.382-.121,29.23a1.617,1.617,0,0,1-2.71.586c-.838-.868-.767-30.794-.1-32.8,3.086-.91,17.684-.26,22.231-.356-.158-3.778.761-6.335,4.637-6.577,6.7-.419,5.217,1.764,8.4-3.532,1.621-2.7,2.676-4.728,6.263-5.624a7.2,7.2,0,0,1,8.363,3.553c1.5,2.69.988,18.538.861,22.733a8.531,8.531,0,0,1-4.347,7.394c-2.813,1.553-7.784,1.02-11.208,1.02Z" transform="translate(-350.409 -505.96)" fill="#444242" fill-rule="evenodd"/>
      <path id="Path_308" data-name="Path 308" d="M89.92,562.712l.006,5.828c5.08-.048,8.167-.829,7.193,2.888-2.137.87-12.835.44-15.808.44-2.442,0-2.613-1.274-1.925-3.034,2.089-.556,4.748-.093,7.073-.38l.054-5.645c-1.736-.383-2.475.053-4.117-.549-.889-3.381,1.519-2.921,4.852-2.925,6.715,0,11.558-4.178,11.558-10.872v-18.7c-.01-3.122.156-5.131,2.16-6.474a5.358,5.358,0,0,1,3.488-1.019,1.584,1.584,0,0,1,1.05,2.571c-1.754,2.316-3.4-1.787-3.375,5.516.021,6.986.865,20.539-1.7,25.054a15.476,15.476,0,0,1-4.193,4.716c-2.625,1.957-4.864,1.931-6.318,2.585Z" transform="translate(-45.347 -506.645)" fill="#444242" fill-rule="evenodd"/>
      <path id="Path_309" data-name="Path 309" d="M1080.6,426.081l-15.777.018,6.489,10.963c6.1.2,11.014-1.089,9.348,3.091-3.988.557-4.905.3-9.035.285-2.917-.014-2.474-.474-5.181-5-1.272-2.127-2.612-4.375-3.893-6.494-4.571-7.559-2.874-6.176,9.965-6.176,1.749,0,8.772-.333,9.834.33.857.536,3.222,5.027,4.031,6.369.617,1.024,1.855,2.189,1.132,3.577-.408.783-1.863,1.56-3.115-.422a64.564,64.564,0,0,1-3.8-6.538Z" transform="translate(-1060.005 -410.408)" fill="#444242" fill-rule="evenodd"/>
      <path id="Path_310" data-name="Path 310" d="M996.756,1134.473c.069,5.047.6,21.584-.283,25.307-3.267,1.1-3.057-1.069-3.047-4.03.017-4.678-.418-22.422.391-24.432,1.713-.484,12.473-.83,13.385.216a1.823,1.823,0,0,1-.3,2.432C1005.606,1134.911,999.815,1133.745,996.756,1134.473Z" transform="translate(-977.572 -1094.932)" fill="#444242" fill-rule="evenodd"/>
    </g>
  </g>
</svg>
