<svg xmlns="http://www.w3.org/2000/svg" width="24.406" height="16.965" viewBox="0 0 24.406 16.965">
  <path id="Icon_awesome-arrow-right" data-name="Icon awesome-arrow-right" d="M7.4,3.784l.862-.862a.929.929,0,0,1,1.317,0l7.552,7.548a.929.929,0,0,1,0,1.317L9.58,19.338a.929.929,0,0,1-1.317,0L7.4,18.476a.933.933,0,0,1,.016-1.332l4.681-4.46H-6.068A.93.93,0,0,1-7,11.751V10.508a.93.93,0,0,1,.932-.932H12.1L7.416,5.116A.927.927,0,0,1,7.4,3.784Z" transform="translate(7 -2.647)" fill="#444242" opacity="0.7"/>
</svg>
