<svg xmlns="http://www.w3.org/2000/svg" width="69.231" height="60.361" viewBox="0 0 69.231 60.361">
  <g id="Layer_x0020_1" transform="translate(0.03 -0.048)">
    <g id="_2509247378368" transform="translate(-0.03 0.048)">
      <path id="Path_326" data-name="Path 326" d="M19.592,36.128a24.462,24.462,0,0,0,.716-2.383q.337-1.2.687-2.4c.23-.8.456-1.6.687-2.4.116-.4.227-.8.343-1.2.132-.46.183-.823.649-.924.5-.109.766.229.873.623l1.991,7.293c.1.369.256.859.332,1.237a28.053,28.053,0,0,1,3.013.047c.4.158.443.527.545,1,.048.22.1.414.144.628l.123.535.008.023.01.023.053-.056c.1-.45.166-1.079.233-1.536l.754-4.962c.346-2.21.659-4.411,1-6.628.511-3.31,1.025-6.608,1.5-9.923a1.111,1.111,0,0,1,.246-.7.762.762,0,0,1,.738-.159c.55.187.474.761.527,1.388.2,2.363.327,4.745.522,7.111s.341,4.735.519,7.1.373,4.749.521,7.107l.386,5.327a15.9,15.9,0,0,0,.146,1.747c.172-1.05.3-2.1.457-3.149s.305-2.089.459-3.138a5.336,5.336,0,0,1,.3-1.5c.276-.393.952-.283,1.511-.283,1.2,0,2.407.016,3.6-.006.085-.284.234-.6.344-.882l2.139-5.4c.137-.356.2-.61.491-.766a.709.709,0,0,1,.892.213,4.9,4.9,0,0,1,.349.909l1.612,4.673c.1.3.237.628.318.939.732.045,2.261.005,3.082.005H60.9c.578,0,.384-.005.756-.417.056-.062.118-.138.183-.216.124-.147.22-.264.347-.424A33.1,33.1,0,0,0,66.4,27.957a27.645,27.645,0,0,0,2.7-9.7,16.608,16.608,0,0,0-.3-5.669,14.058,14.058,0,0,0-1.837-4.362c-.219-.321-.41-.609-.637-.906-.119-.156-.226-.288-.34-.431s-.246-.3-.355-.417a18.955,18.955,0,0,0-3.3-2.9c-.622-.424-1.224-.819-1.914-1.2A17.813,17.813,0,0,0,50.356.08,19.782,19.782,0,0,0,39.194,4.408l-.432.339c-.079.062-.132.11-.2.171-.086.079-.124.1-.215.186-.071.07-.134.1-.2.168l-.41.39c-.632.585-1.124,1.085-1.761,1.725A10.376,10.376,0,0,0,34.9,8.625c-.112.153-.188.355-.307.484-.07-.076-.218-.365-.293-.469-.221-.308-.462-.558-.705-.837-.325-.374-1.943-2-2.329-2.327L30,4.42a19.65,19.65,0,0,0-1.82-1.293A19.508,19.508,0,0,0,18.791.078,18.063,18.063,0,0,0,8.726,2.395c-.329.192-.647.366-.968.575a20.439,20.439,0,0,0-1.815,1.27c-.155.127-.276.215-.427.344L4.293,5.7A11.916,11.916,0,0,0,3.17,6.924c-.113.15-.229.286-.34.431A13.674,13.674,0,0,0,.366,12.66a16.512,16.512,0,0,0-.277,5.678,27.126,27.126,0,0,0,1.788,7.523,32.2,32.2,0,0,0,3.189,6.125,38.5,38.5,0,0,0,2.687,3.541c.534.639.421.6.954.6H19.592Z" transform="translate(0.03 -0.048)" fill="#bc2f2f" fill-rule="evenodd"/>
      <path id="Path_327" data-name="Path 327" d="M383.427,822.443a19.211,19.211,0,0,1-3-.076c-.38-.186-.389-.539-.525-1.018L378.9,817.67c-.223-.81-.475-1.644-.671-2.447a8.156,8.156,0,0,0-.3.989l-1.431,5c-.244.884-.182,1.389-1.186,1.388-3.422,0-6.866-.037-10.284,0,.1.186,1.574,1.588,1.864,1.846.127.113.231.226.378.365l.582.533c.264.224.718.7.98.9l.578.536c.191.172.426.349.59.525a1.668,1.668,0,0,0,.2.174c.28.238.68.65.984.9.269.221.851.811,1.156,1.072.4.341.768.715,1.16,1.069.048.043.133.135.186.184l9.115,8.083a2.124,2.124,0,0,1,.2.174c.473.464,1.1.944,1.588,1.412.151.146.235.209.383.359.071.071.128.1.2.171l2.133,1.979c.388.33.775.758,1.16,1.1.261.229,1.311,1.337,1.534,1.478.187-.111,1.335-1.292,1.552-1.488l.373-.369c.14-.13.273-.234.407-.366.34-.334.831-.822,1.174-1.111l2.589-2.353c.083-.066.124-.128.206-.193a1.4,1.4,0,0,0,.2-.174c.065-.068.131-.106.2-.17.4-.354.787-.737,1.205-1.079.155-.127.263-.246.389-.353l1.631-1.427c.115-.116.283-.239.413-.36l1.4-1.227c.544-.443,1.076-.977,1.616-1.439.077-.066.127-.113.212-.188l1.8-1.6c.086-.08.115-.121.2-.194l2.762-2.551a2.025,2.025,0,0,1,.2-.173c.089-.074.115-.116.2-.2l3.376-3.081c.076-.066.146-.115.214-.186l1.568-1.489c.113-.106,1.411-1.368,1.509-1.558-1.576-.027-3.173,0-4.751,0h-5.913c-.441,0-.715.057-.985-.21a7.852,7.852,0,0,1-.671-1.7c-.2-.588-.407-1.165-.608-1.763-.168-.5-.511-1.331-.61-1.791-.036.034-.017.008-.048.058a3.2,3.2,0,0,0-.208.512l-.686,1.742c-.3.781-.6,1.542-.914,2.314-.527,1.289-.33,1.148-2.071,1.148h-3.27c-.1.869-.247,1.814-.39,2.692s-.264,1.794-.393,2.691c-.259,1.8-.529,3.591-.787,5.387-.064.444-.125.9-.2,1.343a13.511,13.511,0,0,1-.206,1.337.712.712,0,0,1-1.341.027c-.094-.245-.445-5.766-.5-6.469-.307-3.833-.566-7.669-.841-11.51l-.635-8.608c-.066-.953-.112-1.967-.216-2.912-.076.179-1.033,6.729-1.085,7.085-.171,1.174-.375,2.371-.536,3.549-.322,2.369-.735,4.755-1.08,7.119-.086.592-.179,1.178-.266,1.762a6.549,6.549,0,0,1-.345,1.714.717.717,0,0,1-1.239-.212c-.131-.386-.654-2.855-.768-3.344l-.29-1.255c-.026-.118-.032-.325-.128-.394Z" transform="translate(-355.378 -785.1)" fill="#bc2f2f" fill-rule="evenodd"/>
    </g>
  </g>
</svg>
