<svg xmlns="http://www.w3.org/2000/svg" width="89.44" height="114.206" viewBox="0 0 89.44 114.206">
  <g id="_2126095478032" transform="translate(0 0)">
    <path id="Path_316" data-name="Path 316" d="M1888.874,1907.706c0-1.561-.3-2.391-.345-3.989a17.24,17.24,0,0,1,.04-3.945,13.366,13.366,0,0,1,3.7-7.741,15,15,0,0,1,3.331-2.564,10.208,10.208,0,0,0,1.208-.873c2.825-2.351,5.332-4.2,7.293-7.962,2.908-5.574,2.081-8.63,2.273-15.065.026-.873.175-.96.186-1.895l-.007-6.6c0-.833-.156-1.194-.153-1.736a65.063,65.063,0,0,0-.486-8.722c-.2-1.477-.344-2.2-1.788-2.2-5.734,0-6.193,4.3-6.731,8.178l-1.778,11.225c-.118.571-.106,1.011-.215,1.692-.346,2.169-1.038-.8-6.313,4.782l-2.66,3.234-.086.088c-4.4,4.375-13.037,8.531-15.318,12.246a9.3,9.3,0,0,0-1.354,4.206,9.465,9.465,0,0,0,.14,1.677c.137,4.25-.023,10.424-.017,14.929,0,2.581,1.884,1.725,3.626,1.921,3.221.361,6.507-.169,9.164.2.691.095,4.7.319,5.427-.041.294-.145.86-.629.86-1.047Z" transform="translate(-1819.367 -1794.812)" fill-rule="evenodd"/>
    <path id="Path_317" data-name="Path 317" d="M87.379,1853.966v1.734a33.388,33.388,0,0,1-.079,3.92l.448,15.477a18.211,18.211,0,0,0,4.788,9.429,9.116,9.116,0,0,0,1.334,1.44l3.484,2.93c1.545,1.263,2.985,1.552,5.079,4.109,2.724,3.327,3.363,8.11,2.706,12.535-.686,4.62.982,3.38,6.676,3.21,3.476-.1,5.007.145,8.682-.159,5.146-.424,2.9,2.045,3.452-16.313a10.826,10.826,0,0,0,.056-3.166,8.709,8.709,0,0,0-2.479-4.8c-2.6-2.84-9.757-6.43-14.17-10.794a22.715,22.715,0,0,1-1.642-2c-1.445-1.766-3.661-4.209-5.89-4.858-1.731-.5-1.253.015-1.532-2.109-1.045-6.744-.507-20.121-8.832-20.121-1.728,0-1.608,2.3-1.749,3.973l-.331,5.563Z" transform="translate(-84.952 -1794.822)" fill-rule="evenodd"/>
    <path id="Path_318" data-name="Path 318" d="M849.944,1387.345l5.327-4.662.1-.1,1.771-1.7a7.5,7.5,0,0,1,.836-.8l6.028-6.265c.6-.67,1.048-1.175,1.646-1.844a48.029,48.029,0,0,0,7.043-10.556c3.617-8.085-.649-19.493-11.155-19.493-7.25,0-9.847,6.526-11.433,6.671-1.523.139-2.1-2.259-4.845-4.24a11.679,11.679,0,0,0-14.608.236,11.847,11.847,0,0,0-4,6.154c-2.549,8.246,2.328,14.7,6.8,20.135l5.991,6.741a11.11,11.11,0,0,0,1.238,1.216C843.281,1381.167,846.946,1385.089,849.944,1387.345Z" transform="translate(-805.225 -1307.916)" fill="#ef6331" stroke="#000" stroke-width="3" fill-rule="evenodd"/>
    <path id="Path_319" data-name="Path 319" d="M2000.307,2015.647a1.607,1.607,0,0,1-1.56-1.387c0-1.46,2.072-4.25,2.9-5.074,2.834-2.819,5.684-3.9,8.466-7.483,1.22-1.572,3.019-3.324,3.019-5.476,0-2.406-2.713-.732-3.892.268a8.267,8.267,0,0,0-1.851,1.963c-.434.545-.8,1-1.214,1.56a15.259,15.259,0,0,1-2.706,2.668l-10.891,7.832a11.87,11.87,0,0,0-1.5,1.269,7.825,7.825,0,0,0-1.521,2.466c-.367,1.158-.167,14.368-.167,16.651,1.037,0,1.7.179,2.946.174l6.593-.006c1.145,0,1.8.179,3.114.179-.552-1.151-.183-5.846.049-7.233a15.5,15.5,0,0,1,6.057-10.24c1.473-1.215,3.675-2.278,5.726-4.328,2.6-2.6,4.6-4.934,5.461-8.928a43.678,43.678,0,0,0,.387-7.762c0-2.762.174-5.1.174-7.976,0-2.136-.183-3.609-.172-5.723.007-1.216-.17-1.734-.181-2.766l-.167-2.954c-2.115.047-2.093,2.993-2.435,5.54-.523,3.9-1.67,9.5-2.109,13.17-.174,1.453.957.814,1.433,3.3a6.215,6.215,0,0,1-.376,3.455,5.214,5.214,0,0,1-.673,1.234,26.661,26.661,0,0,1-2.556,3.512c-4.536,5.08-7.13,6.046-8.619,7.676-2.236,2.448-2.151,4.416-3.732,4.416Z" transform="translate(-1935.827 -1920.265)" fill="#ffce29" fill-rule="evenodd"/>
    <path id="Path_320" data-name="Path 320" d="M198.962,1978.33c-.26,4.621-.42,18.866.514,22.546.849,3.341,1.671,3.855,3.007,6.008a15.842,15.842,0,0,0,2.609,2.765l.094.079.094.079,5.566,4.142c4.377,3.691,6.142,8.087,6.142,14.142,0,1.278-.226,2.064-.2,2.44.1,1.231.993.507,1.93.507.849,0,.176.2,1.139.1,1.925-.2,4.813-.111,6.836-.1,1.131.006,1.713-.175,2.6-.175l.057-15.827c-.787-3.956-5.089-5.636-8.675-8.323-1.652-1.238-3.417-2.312-5.092-3.75-2.774-2.381-1.808-1.466-3.943-4.2-1.022-1.311-3.08-3.788-5.227-3.788-.658,0-.867.738-.867,1.387,0,1.7,2.939,5.439,3.756,6.125a8.8,8.8,0,0,1,1.042,1.038,5.064,5.064,0,0,0,.958.949c.423.367.7.585,1.137.943,2.218,1.824,2.126,1.291,4.418,3.557,1.026,1.015,3.076,3.529,3.076,5.246,0,.873-1.815,2.785-3.211-.082a13.83,13.83,0,0,0-2.2-3.176c-1.3-1.3-4.08-2.728-7.117-5.884l-1.983-2.351c-1.981-2.68-3-3.479-3-7.059a3.851,3.851,0,0,1,1.56-2.948c-.049-.584-.24-1.376-.318-1.936-.573-3.611-1.044-17.409-4.362-17.483,0,1.026-.123,1.651-.169,2.78l-.178,2.249Z" transform="translate(-193.415 -1920.226)" fill="#ffce29" fill-rule="evenodd"/>
    <path id="Path_321" data-name="Path 321" d="M-.01,44.758a1.671,1.671,0,0,0,1.56,1.561c1.073,0,4.669-4.064,5.59-4.985C10.29,38.182,43.83,4.428,44.71,3.839c.838.561,12.974,12.892,15.037,14.954.578.578,1.505,1.864,2.47,1.864,2.195,0,1.56-3.324,1.56-6.415H68.11v12.31c0,1,3.246,3.915,4.306,4.882L85.054,44.108c.616.616,1.828,2.211,2.817,2.211,1.109,0,1.56-.847,1.56-1.907,0-.563-5.968-6.23-6.457-6.719L76.387,31.1l-2.437-2.416c-.024-.027-.056-.067-.08-.094-3.439-3.887-2.64-.17-2.64-12.1,0-2.79.515-5.375-1.387-5.375H61.87A1.578,1.578,0,0,0,60.651,12.5c-.07.666.005,1.88.005,2.607l-2.422-2.259c-.024-.026-.058-.065-.083-.091l-.611-.6c-.03-.029-.206-.194-.266-.254-.029-.029-.242-.25-.255-.265L51.081,5.615c-.179-.18-.251-.259-.438-.429l-3.065-3-.08-.093-.667-.72c-.156-.145-.116-.1-.276-.244l-.09-.083c-2.374-2.191-2.375-1-7.778,4.4L1.16,42.981c-.485.481-1.17.916-1.17,1.777Z" transform="translate(0.01 -0.005)" fill-rule="evenodd"/>
  </g>
</svg>
