<svg xmlns="http://www.w3.org/2000/svg" width="24.185" height="24.185" viewBox="0 0 24.185 24.185">
  <path id="Icon_simple-whatsapp" data-name="Icon simple-whatsapp" d="M17.633,14.493c-.3-.151-1.781-.874-2.056-.973s-.477-.151-.678.151-.777.971-.951,1.171-.352.212-.651.076a8.178,8.178,0,0,1-2.421-1.5A9.142,9.142,0,0,1,9.2,11.335c-.175-.3-.019-.469.131-.62.137-.136.3-.348.454-.527a2.555,2.555,0,0,0,.3-.5.554.554,0,0,0-.025-.528c-.076-.151-.677-1.632-.929-2.223s-.491-.514-.677-.514c-.173-.015-.374-.015-.575-.015a1.136,1.136,0,0,0-.8.362A3.364,3.364,0,0,0,6.024,9.264a5.9,5.9,0,0,0,1.228,3.1,13.437,13.437,0,0,0,5.139,4.52c.719.3,1.28.484,1.717.634A4.169,4.169,0,0,0,16,17.638,3.1,3.1,0,0,0,18.035,16.2a2.494,2.494,0,0,0,.181-1.436c-.075-.136-.272-.212-.574-.348m-5.488,7.5h-.016a10.081,10.081,0,0,1-5.094-1.391l-.363-.216L2.9,21.294l1.013-3.673-.241-.378A9.994,9.994,0,0,1,19.24,4.914a9.863,9.863,0,0,1,2.931,7.044A10.007,10.007,0,0,1,12.16,21.918M20.678,3.476A12.235,12.235,0,0,0,12.138,0,11.981,11.981,0,0,0,1.709,17.975L0,24.185,6.384,22.52a12.155,12.155,0,0,0,5.754,1.458h.006A12.032,12.032,0,0,0,24.185,11.991a11.885,11.885,0,0,0-3.522-8.476" transform="translate(0 0)" fill="#ef6331"/>
</svg>
