<svg xmlns="http://www.w3.org/2000/svg" width="26" height="25" viewBox="0 0 26 25">
  <g id="Group_301" data-name="Group 301" transform="translate(0.221 0.066)">
    <rect id="Rectangle_121" data-name="Rectangle 121" width="26" height="25" rx="3" transform="translate(-0.221 -0.066)" fill="#ef6331"/>
    <g id="Icon_feather-instagram" data-name="Icon feather-instagram" transform="translate(6.544 6.544)">
      <path id="Path_2" data-name="Path 2" d="M6.045,3h6.09a3.045,3.045,0,0,1,3.045,3.045v6.09a3.045,3.045,0,0,1-3.045,3.045H6.045A3.045,3.045,0,0,1,3,12.135V6.045A3.045,3.045,0,0,1,6.045,3Z" transform="translate(-3 -3)" fill="none" stroke="#fff" stroke-linecap="round" stroke-linejoin="round" stroke-width="1"/>
      <path id="Path_3" data-name="Path 3" d="M16.91,14.014a2.436,2.436,0,1,1-2.052-2.052A2.436,2.436,0,0,1,16.91,14.014Z" transform="translate(-8.385 -8.307)" fill="none" stroke="#fff" stroke-linecap="round" stroke-linejoin="round" stroke-width="1"/>
      <path id="Path_4" data-name="Path 4" d="M26.25,9.75h0" transform="translate(-16.811 -7.01)" fill="none" stroke="#fff" stroke-linecap="round" stroke-linejoin="round" stroke-width="1"/>
    </g>
  </g>
</svg>
