<svg xmlns="http://www.w3.org/2000/svg" width="75.609" height="64.337" viewBox="0 0 75.609 64.337">
  <g id="Layer_x0020_1" transform="translate(0.002 -0.015)">
    <g id="_2508182333856" transform="translate(-0.002 0.015)">
      <path id="Path_335" data-name="Path 335" d="M172.152,161.382l-.268.151-1.516.689-.2.19-2.752,1.7-.183.208a11.338,11.338,0,0,0-1.377.99l-.176.233a14.664,14.664,0,0,0-3.089,3.084l-.233.177-.461.7-.22.179-.3.512-.209.184-.84,1.364-.191.2-.511,1.009-.179.205-.523,1.165c0,.273.079.218-.17.218v.133l-.162.236-.543,1.469-.151.26-.372,1.277-.135.323,0,.29-.21.3.022.351-.19.356-.14,1.234-.21.5c-.047,1.764-.345,3.291-.279,5.211.063,1.836.512,3.484.6,5.089l.248.393-.02.327.134.328,0,.289.212.3a8.62,8.62,0,0,0,1.178,2.954c.254,0,.186-.063.2.192a8.461,8.461,0,0,0,2.915,2.76c.259.005.2-.064.2.187l.913.285c3.347.295,6.789-2.271,8.067-3.942,1.4-1.834,3.422-6.471,1.766-9.477l-.35-.208c-.276,0-.221.08-.221-.17l-.122,0-.223-.17c-1.664-.679-3.807-1.528-4.458-2.772-.249,0-.181.061-.191-.194l-.176-.468c-.269,0-.176.052-.152-.266l.016-.322-.213-.5.2-1.661c-.022-.317-.115-.265.152-.265l.174-.471c.009-.255-.058-.194.192-.194a3.6,3.6,0,0,1,2.927-1.769c1.516-.114,2.467.613,3.616,1.087.276-.007.221-.083.221.169l.472.174.221.17.276.041.494-.454c.118-.088.278-.182.422-.269a9.789,9.789,0,0,0,2.6-1.9c3.806-3.74,4.265-9.869,1.554-13.309l-.167-.19-.2-.191-.822-.347-.251-.155-2.185-.526-.76-.179a19.6,19.6,0,0,0-3.695.532Z" transform="translate(-153.855 -158.256)" fill="#f79571" fill-rule="evenodd"/>
      <path id="Path_336" data-name="Path 336" d="M2437.927,21.265c1.161-.493,2.22.075,2.048,1.4-.133,1.02-1.124,1.206-2.025,1.628l-10.01,4.875a7.254,7.254,0,0,0-3.3,3.977c-.7,1.98-.407,20.712-.394,25.566,0,1.045.261,2.423-.727,2.922-1.134.572-1.977-.227-2.057-1.357-.172-2.42,0-15.168,0-18.535,0-6.741-1.017-12.152,6.486-15.691,3.332-1.572,6.6-3.346,9.983-4.783ZM2425.282,8.7l.158-.24a12.186,12.186,0,0,1,1.2-2.215l.231-.174A8.011,8.011,0,0,1,2429.249,4c0-.252-.061-.184.2-.188l.138,0,.212-.176.477-.172.249-.155,1.313-.357.384-.181h.678c3.5-1.541,10.255,4.05,11.688,5.286a25.24,25.24,0,0,1,3.947,4.711,26.237,26.237,0,0,1,3.709,20.6c-1.109,4.88-3.437,7.944-8.387,8.774l-2.971-.064-.41-.174-.332.019-.291-.214-.69-.158-.246-.157a12.625,12.625,0,0,1-1.859-1.025l-.177-.224a6.4,6.4,0,0,1-1.886-2.05l-.2-.189a9.936,9.936,0,0,1-1.364-3.8c-.3-2.231.247-2.9.49-4.705l.239-.277a5.591,5.591,0,0,1,2-1.08l.221-.17.125,0,.223-.169h.133c0-.248-.054-.171.22-.17,1.741-.745,4.077-1.614,4.807-2.934l.194-.193.3-1.073.213-.5v-.831l-.211-.5.013-.312-.15-.27-.17-.48-.191-.2a3.594,3.594,0,0,0-2.931-1.762c-1.507-.114-2.477.622-3.613,1.088l-.221.17h-.131l-.217.171-.126,0c0,.253.056.177-.221.169-.835.336-1.533.746-2.354,1.113-.853.38-1.239-.3-2.115-.754l-.194-.192a8.936,8.936,0,0,1-3.436-3.107l-.2-.189a8.038,8.038,0,0,1-.832-1.928l-.221-.283,0-.3-.135-.324a10.714,10.714,0,0,1,.333-5.438Zm-3.122,3.089c0,7.868,5.94,10.127,6.58,11.082-2.2.513-5.229,2.774-6.885,4.542a13.052,13.052,0,0,0-2.984,8.444V60.093a3.951,3.951,0,0,0,2.354,3.879,3.8,3.8,0,0,0,4.448-.886c1.342-1.335,1.163-2.565,1.163-5.071V38.969c0-2.178-.236-4.239.525-5.709.8-1.541,2.118-1.975,3.631-2.775l-.173,3.117a12.2,12.2,0,0,0,1.935,5.857,11.954,11.954,0,0,0,16.353,3.426c3.45-2.312,4.872-5.166,5.825-9.931a28.988,28.988,0,0,0-14.768-31.206A12.907,12.907,0,0,0,2437.51.59,16.121,16.121,0,0,0,2434.1.018a13.291,13.291,0,0,0-6.192,1.755,11.818,11.818,0,0,0-5.746,10.011Z" transform="translate(-2379.856 -0.015)" fill="#2b2a29" fill-rule="evenodd"/>
      <path id="Path_337" data-name="Path 337" d="M15.48,25.113c-.17-1.23.752-1.9,1.981-1.5s11.711,5.64,12.4,6.153C35.3,33.8,34,40.469,34,47.8c0,3.1.16,12.605,0,14.9-.078,1.088-.809,1.848-1.939,1.412-1.05-.406-.85-1.688-.845-2.8l0-22.337c0-2.458-.322-4.089-1.643-5.622-1.338-1.552-2.264-1.907-4.5-2.957l-7.445-3.624c-.9-.432-2.013-.638-2.152-1.648Zm5.827-2.561-.276-.041c-.278.011-.221.086-.221-.17l-.472-.174L20.116,22c-1.15-.474-2.1-1.2-3.616-1.087a3.6,3.6,0,0,0-2.927,1.769l-.192.194-.174.471-.152.265-.2,1.661.213.5-.016.322.152.266.176.468.191.194c.65,1.244,2.794,2.094,4.458,2.772.278-.005.223-.082.223.17l.122,0,.221.17.35.208c2.194.766,3.1,1.119,3.165,4.811a9.366,9.366,0,0,1-6.58,9.081c-1.552.484-5.3.65-6.417-.473L8.2,43.476,8,43.289a8.464,8.464,0,0,1-2.915-2.76l-.2-.192a8.621,8.621,0,0,1-1.178-2.954l-.212-.3,0-.289-.134-.328.02-.327-.248-.393c-.092-1.6-.542-3.253-.6-5.089-.066-1.92.233-3.447.279-5.211l.21-.5.14-1.234.19-.356-.022-.351.21-.3,0-.29.135-.323.372-1.277.151-.26.543-1.469c-.01-.29-.092-.236.162-.236v-.133l.17-.218.523-1.165c0-.263-.068-.205.179-.205l.511-1.009c.007-.258-.061-.2.191-.2l.84-1.364.209-.184.3-.512.22-.179.461-.7.233-.177a14.664,14.664,0,0,1,3.089-3.084L12,9.494A11.319,11.319,0,0,1,13.38,8.5l.183-.208,2.752-1.7c0-.249-.06-.181.2-.19l1.516-.689c0-.269-.052-.175.268-.151a19.6,19.6,0,0,1,3.695-.532l.76.179,2.185.526.251.155.822.347c.26.007.2-.061.2.191l.167.19c3.05,1.216,5.548,6.6,3.682,11.267a9.238,9.238,0,0,1-3.707,4.433c-.39.252-2.293,1.443-2.426,1.456a10.512,10.512,0,0,1-2.616-1.221Zm3.335,13.123-.173-2.77c4.416,2.337,4.156,2.609,4.156,8.311V60.09c0,2.463-.225,4.023,1.076,5.331,2.83,2.845,6.889.844,6.889-2.906V38.272a14.136,14.136,0,0,0-.886-4.829,12.614,12.614,0,0,0-5.163-6.265,23.484,23.484,0,0,0-3.821-1.893c.639-.955,6.58-3.214,6.58-11.082a11.911,11.911,0,0,0-18-10.037,32.127,32.127,0,0,0-8.641,7.116,27.134,27.134,0,0,0-3.213,4.752c-4.808,8.093-5.257,24.377,3.025,29.33a11.853,11.853,0,0,0,18.174-9.689Z" transform="translate(0.002 -2.436)" fill="#2b2a29" fill-rule="evenodd"/>
      <path id="Path_338" data-name="Path 338" d="M2790.435,169.844l-1.313.357-.249.155-.477.172c0,.255.058.183-.213.176l-.138,0-.2.188a8.013,8.013,0,0,0-2.38,2.065l-.231.174a12.181,12.181,0,0,0-1.2,2.215l-.158.24a10.716,10.716,0,0,0-.333,5.438l.135.324,0,.3.221.283a8.039,8.039,0,0,0,.832,1.928l.2.189a8.936,8.936,0,0,0,3.436,3.107c.255.008.194-.059.194.192.876.456,1.262,1.135,2.115.754.821-.367,1.519-.776,2.354-1.113l.221-.169.126,0c0-.249-.055-.174.217-.171h.131c0-.252-.056-.176.221-.17,1.136-.466,2.106-1.2,3.613-1.088a3.6,3.6,0,0,1,2.931,1.762c.251,0,.184-.061.191.2l.169.48c.265,0,.17-.051.15.27l-.013.312.211.5v.831l-.213.5-.3,1.073c0,.256.061.193-.194.193-.73,1.32-3.066,2.189-4.807,2.934,0,.248.054.172-.22.17h-.133c0,.25.054.172-.223.169l-.125,0c0,.255.057.18-.221.17a5.593,5.593,0,0,0-2,1.08l-.239.277c-.243,1.805-.791,2.474-.49,4.705a9.938,9.938,0,0,0,1.364,3.8c.254,0,.187-.064.2.189a6.4,6.4,0,0,0,1.886,2.05l.177.224a12.618,12.618,0,0,0,1.859,1.025l.246.157.69.158.291.214.332-.019.41.174,2.972.064c.8-1.187,3.954-1.673,5.392-10.043a27.437,27.437,0,0,0-11.109-26.955c-.763-.56-1.463-.98-2.292-1.515-1.23-.794-1.15-.958-2.948-.861h-.678l-.384.181Z" transform="translate(-2738.455 -166.903)" fill="#f79571" fill-rule="evenodd"/>
      <path id="Path_339" data-name="Path 339" d="M977.15,1344.865c.163-2.293,0-11.8,0-14.9,0-7.326,1.3-14-4.138-18.033-.691-.513-11.164-5.754-12.4-6.153s-2.15.274-1.981,1.5c.139,1.011,1.25,1.216,2.152,1.648l7.445,3.624c2.231,1.05,3.157,1.406,4.5,2.957,1.321,1.533,1.648,3.164,1.643,5.622l0,22.337c0,1.116-.2,2.4.845,2.8C976.341,1346.713,977.072,1345.953,977.15,1344.865Z" transform="translate(-943.15 -1284.607)" fill="#ffce29" fill-rule="evenodd"/>
      <path id="Path_340" data-name="Path 340" d="M2591.243,1306.746c-3.383,1.437-6.651,3.212-9.983,4.783-7.5,3.539-6.486,8.95-6.486,15.691,0,3.366-.169,16.114,0,18.535.08,1.13.923,1.929,2.057,1.357.988-.5.73-1.878.727-2.922-.013-4.854-.308-23.586.394-25.566a7.252,7.252,0,0,1,3.3-3.977l10.01-4.875c.9-.422,1.892-.609,2.024-1.628.172-1.321-.886-1.89-2.048-1.4Z" transform="translate(-2533.171 -1285.497)" fill="#ffce29" fill-rule="evenodd"/>
      <path id="Path_341" data-name="Path 341" d="M3299.507,194.315c4.95-.83,7.278-3.895,8.387-8.774a26.236,26.236,0,0,0-3.709-20.6,25.235,25.235,0,0,0-3.947-4.711c-1.434-1.236-8.187-6.827-11.688-5.286,1.8-.1,1.718.067,2.948.861.83.535,1.528.955,2.292,1.515a27.439,27.439,0,0,1,11.109,26.955c-1.438,8.37-4.589,8.855-5.393,10.043Z" transform="translate(-3235.509 -152.179)" fill="#ef6331" fill-rule="evenodd"/>
      <path id="Path_342" data-name="Path 342" d="M1321.09,275.165a10.518,10.518,0,0,0,2.616,1.221c.134-.013,2.036-1.2,2.426-1.456a9.239,9.239,0,0,0,3.707-4.433c1.866-4.669-.632-10.051-3.682-11.267,2.711,3.441,2.253,9.57-1.554,13.309a9.791,9.791,0,0,1-2.6,1.9c-.144.087-.3.181-.422.269l-.494.454Z" transform="translate(-1299.782 -255.049)" fill="#ef6331" fill-rule="evenodd"/>
      <path id="Path_343" data-name="Path 343" d="M565.25,1743.639c1.119,1.124,4.865.957,6.417.473a9.366,9.366,0,0,0,6.58-9.081c-.061-3.692-.971-4.046-3.165-4.811,1.656,3.005-.363,7.643-1.766,9.477-1.278,1.671-4.72,4.236-8.067,3.942Z" transform="translate(-556.133 -1702.313)" fill="#ef6331" fill-rule="evenodd"/>
      <path id="Path_344" data-name="Path 344" d="M3534.223,1706.11c-.275,0-.221-.078-.221.17C3534.277,1706.281,3534.223,1706.358,3534.223,1706.11Z" transform="translate(-3476.997 -1678.58)" fill="#a46a88" fill-rule="evenodd"/>
      <path id="Path_345" data-name="Path 345" d="M1117.824,191.669c-.321-.024-.268-.118-.268.151Z" transform="translate(-1099.527 -188.543)" fill="#9b6685" fill-rule="evenodd"/>
      <path id="Path_346" data-name="Path 346" d="M807.6,1466.936l-.152-.266C807.429,1466.989,807.336,1466.936,807.6,1466.936Z" transform="translate(-794.395 -1443.014)" fill="#b06f8b" fill-rule="evenodd"/>
      <path id="Path_347" data-name="Path 347" d="M807.608,1296.257c-.267,0-.174-.052-.152.266Z" transform="translate(-794.4 -1275.347)" fill="#ab6d8a" fill-rule="evenodd"/>
      <path id="Path_348" data-name="Path 348" d="M3868.6,1296.779c.021-.321.115-.27-.15-.27Z" transform="translate(-3806.055 -1275.595)" fill="#ab6d8a" fill-rule="evenodd"/>
      <path id="Path_349" data-name="Path 349" d="M292.673,1017.574c-.254,0-.172-.053-.162.236Z" transform="translate(-287.773 -1001.157)" fill="#a16886" fill-rule="evenodd"/>
      <path id="Path_350" data-name="Path 350" d="M1290.187,1234.3l-.221-.17C1289.965,1234.386,1289.908,1234.311,1290.187,1234.3Z" transform="translate(-1269.154 -1214.225)" fill="#9b6685" fill-rule="evenodd"/>
      <path id="Path_351" data-name="Path 351" d="M3490.952,1727.95l-.222.17C3491.008,1728.13,3490.952,1728.205,3490.952,1727.95Z" transform="translate(-3434.427 -1700.08)" fill="#b06f8b" fill-rule="evenodd"/>
      <path id="Path_352" data-name="Path 352" d="M3383.821,1234.34l-.221.169C3383.877,1234.517,3383.821,1234.593,3383.821,1234.34Z" transform="translate(-3329.025 -1214.431)" fill="#9b6685" fill-rule="evenodd"/>
      <path id="Path_353" data-name="Path 353" d="M1118.353,1695.335c0-.252.055-.175-.223-.17Z" transform="translate(-1100.095 -1667.809)" fill="#a46a88" fill-rule="evenodd"/>
      <path id="Path_354" data-name="Path 354" d="M3426.6,1212.06c-.277-.006-.221-.082-.221.17Z" transform="translate(-3371.109 -1192.496)" fill="#ab6d8a" fill-rule="evenodd"/>
      <path id="Path_355" data-name="Path 355" d="M1247.511,1212.061c0-.251.055-.176-.221-.169Z" transform="translate(-1227.172 -1192.329)" fill="#ab6d8a" fill-rule="evenodd"/>
      <path id="Path_356" data-name="Path 356" d="M3083.333,224.8l-.213.176C3083.391,224.983,3083.333,225.055,3083.333,224.8Z" transform="translate(-3033.392 -221.174)" fill="#b06f8b" fill-rule="evenodd"/>
      <path id="Path_357" data-name="Path 357" d="M3512.433,1717.32l-.223.169C3512.487,1717.492,3512.433,1717.57,3512.433,1717.32Z" transform="translate(-3455.561 -1689.621)" fill="#a46a88" fill-rule="evenodd"/>
      <path id="Path_358" data-name="Path 358" d="M1139.479,1706.91l-.221-.17C1139.258,1706.99,1139.2,1706.914,1139.479,1706.91Z" transform="translate(-1120.878 -1679.212)" fill="#a46a88" fill-rule="evenodd"/>
      <path id="Path_359" data-name="Path 359" d="M303.93,996.06l-.17.218C304.009,996.278,303.933,996.333,303.93,996.06Z" transform="translate(-298.861 -979.995)" fill="#ab6d8a" fill-rule="evenodd"/>
      <path id="Path_360" data-name="Path 360" d="M3405.045,1222.727c-.272,0-.217-.078-.217.171Z" transform="translate(-3349.906 -1202.993)" fill="#ab6d8a" fill-rule="evenodd"/>
      <path id="Path_361" data-name="Path 361" d="M1612.748,235.595c0-.252.061-.183-.2-.191Z" transform="translate(-1586.541 -231.604)" fill="#a46a88" fill-rule="evenodd"/>
      <path id="Path_362" data-name="Path 362" d="M3846.134,1513.01l-.193.193C3846.195,1513.2,3846.13,1513.266,3846.134,1513.01Z" transform="translate(-3783.908 -1488.607)" fill="#ab6d8a" fill-rule="evenodd"/>
      <path id="Path_363" data-name="Path 363" d="M3062.127,235.2c-.258,0-.2-.064-.2.188Z" transform="translate(-3012.537 -231.403)" fill="#a46a88" fill-rule="evenodd"/>
      <path id="Path_364" data-name="Path 364" d="M389.479,835.927c-.252,0-.184-.061-.191.2Z" transform="translate(-383.006 -822.438)" fill="#a16886" fill-rule="evenodd"/>
      <path id="Path_365" data-name="Path 365" d="M303.528,2349.6c-.012-.256.056-.193-.2-.193Z" transform="translate(-298.437 -2311.511)" fill="#ab6d8a" fill-rule="evenodd"/>
      <path id="Path_366" data-name="Path 366" d="M496.529,2532.788c0-.25.06-.182-.2-.187Z" transform="translate(-488.325 -2491.747)" fill="#ab6d8a" fill-rule="evenodd"/>
      <path id="Path_367" data-name="Path 367" d="M346.45,910.738c-.247,0-.176-.057-.179.206Z" transform="translate(-340.679 -896.044)" fill="#a46a88" fill-rule="evenodd"/>
      <path id="Path_368" data-name="Path 368" d="M3846.271,1254.576c-.008-.257.06-.2-.191-.2Z" transform="translate(-3784.046 -1234.142)" fill="#a46a88" fill-rule="evenodd"/>
      <path id="Path_369" data-name="Path 369" d="M3405.993,2349.535c-.017-.253.051-.189-.2-.189Z" transform="translate(-3350.857 -2311.446)" fill="#ab6d8a" fill-rule="evenodd"/>
      <path id="Path_370" data-name="Path 370" d="M829.783,1254.8c-.251,0-.183-.061-.192.194Z" transform="translate(-816.208 -1234.552)" fill="#a16886" fill-rule="evenodd"/>
      <path id="Path_371" data-name="Path 371" d="M3094.774,1255.226c0-.25.062-.183-.194-.192Z" transform="translate(-3044.667 -1234.789)" fill="#ab6d8a" fill-rule="evenodd"/>
      <path id="Path_372" data-name="Path 372" d="M1011.448,245.808c-.256.008-.2-.06-.2.19Z" transform="translate(-994.936 -241.841)" fill="#a46a88" fill-rule="evenodd"/>
      <path id="Path_373" data-name="Path 373" d="M830.008,1512.394l-.191-.194C829.827,1512.455,829.759,1512.394,830.008,1512.394Z" transform="translate(-816.431 -1487.81)" fill="#a46a88" fill-rule="evenodd"/>
      <path id="Path_374" data-name="Path 374" d="M3223.084,171.14l-.384.181Z" transform="translate(-3170.72 -168.38)" fill="#ab6d8a" fill-rule="evenodd"/>
      <path id="Path_375" data-name="Path 375" d="M1546.311,204.665l-.251-.155Z" transform="translate(-1521.123 -201.212)" fill="#a16886" fill-rule="evenodd"/>
      <path id="Path_376" data-name="Path 376" d="M3126.09,204.48l-.25.155Z" transform="translate(-3075.423 -201.182)" fill="#a16886" fill-rule="evenodd"/>
      <path id="Path_377" data-name="Path 377" d="M829.843,363.34l-.183.208Z" transform="translate(-816.278 -357.48)" fill="#ab6d8a" fill-rule="evenodd"/>
      <path id="Path_378" data-name="Path 378" d="M2900.651,375.2l-.231.174Z" transform="translate(-2853.638 -369.149)" fill="#9b6685" fill-rule="evenodd"/>
      <path id="Path_379" data-name="Path 379" d="M733.507,437.64l-.176.233Z" transform="translate(-721.502 -430.581)" fill="#ab6d8a" fill-rule="evenodd"/>
      <path id="Path_380" data-name="Path 380" d="M2816.558,523.31l-.158.24Z" transform="translate(-2770.974 -514.87)" fill="#ab6d8a" fill-rule="evenodd"/>
      <path id="Path_381" data-name="Path 381" d="M206.41,1257.133l.21-.3Z" transform="translate(-203.081 -1236.558)" fill="#ab6d8a" fill-rule="evenodd"/>
      <path id="Path_382" data-name="Path 382" d="M3876.73,1415.96l.213-.5Z" transform="translate(-3814.202 -1392.63)" fill="#9b6685" fill-rule="evenodd"/>
      <path id="Path_383" data-name="Path 383" d="M797.6,1416.378l-.213-.5Z" transform="translate(-784.529 -1393.043)" fill="#9b6685" fill-rule="evenodd"/>
      <path id="Path_384" data-name="Path 384" d="M219.4,1218.8l-.135.323Z" transform="translate(-215.723 -1199.142)" fill="#ab6d8a" fill-rule="evenodd"/>
      <path id="Path_385" data-name="Path 385" d="M3877.151,1333.243l-.211-.5Z" transform="translate(-3814.408 -1311.244)" fill="#9b6685" fill-rule="evenodd"/>
      <path id="Path_386" data-name="Path 386" d="M3351.62,1805.717l.239-.277Z" transform="translate(-3297.561 -1776.32)" fill="#ab6d8a" fill-rule="evenodd"/>
      <path id="Path_387" data-name="Path 387" d="M250.861,1123.51l-.151.26Z" transform="translate(-246.666 -1105.389)" fill="#ab6d8a" fill-rule="evenodd"/>
      <path id="Path_388" data-name="Path 388" d="M194.668,2065.772l-.248-.393Z" transform="translate(-191.284 -2032.067)" fill="#ab6d8a" fill-rule="evenodd"/>
      <path id="Path_389" data-name="Path 389" d="M208.644,2110.3l-.134-.328Z" transform="translate(-205.147 -2075.938)" fill="#a46a88" fill-rule="evenodd"/>
      <path id="Path_390" data-name="Path 390" d="M217.3,2148.528l-.212-.3Z" transform="translate(-213.588 -2113.581)" fill="#ab6d8a" fill-rule="evenodd"/>
      <path id="Path_391" data-name="Path 391" d="M174.26,1396.5l.21-.5Z" transform="translate(-171.449 -1373.484)" fill="#ab6d8a" fill-rule="evenodd"/>
      <path id="Path_392" data-name="Path 392" d="M195.96,1297.756l.19-.356Z" transform="translate(-192.799 -1276.474)" fill="#ab6d8a" fill-rule="evenodd"/>
      <path id="Path_393" data-name="Path 393" d="M453.589,740.36l-.209.184Z" transform="translate(-446.067 -728.419)" fill="#a46a88" fill-rule="evenodd"/>
      <path id="Path_394" data-name="Path 394" d="M3535.537,2488.834l-.177-.224Z" transform="translate(-3478.338 -2448.471)" fill="#a16886" fill-rule="evenodd"/>
      <path id="Path_395" data-name="Path 395" d="M1364.21,161l-.76-.179Z" transform="translate(-1341.459 -158.226)" fill="#a46a88" fill-rule="evenodd"/>
      <path id="Path_396" data-name="Path 396" d="M3661.836,2566.217l-.246-.157Z" transform="translate(-3602.532 -2524.672)" fill="#a46a88" fill-rule="evenodd"/>
      <path id="Path_397" data-name="Path 397" d="M2869.439,1051.019l-.2-.189Z" transform="translate(-2822.961 -1033.881)" fill="#a16886" fill-rule="evenodd"/>
      <path id="Path_398" data-name="Path 398" d="M3758.64,2597.864l-.41-.174Z" transform="translate(-3697.613 -2555.792)" fill="#ab6d8a" fill-rule="evenodd"/>
      <path id="Path_399" data-name="Path 399" d="M485.36,697.57l-.22.179Z" transform="translate(-477.315 -686.319)" fill="#ab6d8a" fill-rule="evenodd"/>
      <path id="Path_400" data-name="Path 400" d="M2804.2,914.033l-.221-.283Z" transform="translate(-2758.754 -899.012)" fill="#a16886" fill-rule="evenodd"/>
      <path id="Path_401" data-name="Path 401" d="M527.613,643.27l-.233.177Z" transform="translate(-518.874 -632.895)" fill="#a46a88" fill-rule="evenodd"/>
      <path id="Path_402" data-name="Path 402" d="M2795.894,875.614l-.134-.324Z" transform="translate(-2750.667 -861.173)" fill="#a46a88" fill-rule="evenodd"/>
      <path id="Path_403" data-name="Path 403" d="M3719.921,2585.784l-.291-.214Z" transform="translate(-3659.635 -2543.867)" fill="#a46a88" fill-rule="evenodd"/>
    </g>
  </g>
</svg>
