<svg xmlns="http://www.w3.org/2000/svg" width="68.568" height="67.337" viewBox="0 0 68.568 67.337">
  <g id="Layer_x0020_1" transform="translate(-0.001 0.099)">
    <g id="_2508122739424" transform="translate(0.001 -0.099)">
      <path id="Path_404" data-name="Path 404" d="M2.123,58.686c1.309-.6.568-1.8.316-3.24a28.9,28.9,0,0,1-.373-4.161,58.927,58.927,0,0,1,.482-8.374c1.426-11.7,4.205-23.373,12.239-31.924,1.437-1.529,3.619-3.479,5.875-2.8a4.5,4.5,0,0,1,3.3,2.666c.952,2.165-.609,5.238.985,10.74a17.62,17.62,0,0,0,.818,2.255c.282.641.738,1.376.972,1.992a20.393,20.393,0,0,1-1.784,2.173,70.991,70.991,0,0,1-5.869,5.644A19.571,19.571,0,0,1,16.733,31c-.3-.69.169-3.691.333-4.489.112-.546.5-1.518.311-2.012a1.034,1.034,0,0,0-1.551-.407c-.8.622-.6,3.024-1.089,3.821A12.864,12.864,0,0,1,13.4,25c-.17-.5-.257-1.194-.678-1.5a1.024,1.024,0,0,0-1.447.3c-.6,1.14,1.764,5.166,2.143,5.99-1.555.061-3.225-.095-4.488.59a.984.984,0,0,0-.175,1.661c.605.436,1.279,0,1.934-.131.963-.2,3.934-.233,4.525.417.742.817.862,1.175,1.749,2.055a1.373,1.373,0,0,1,.509.741A13.2,13.2,0,0,0,14.8,37.749c-.981,1.118-1.816,2.692-2.236,3.123a12.952,12.952,0,0,1-2.11-2.05C8.669,36.759,8.98,35.385,7.969,35.2A.96.96,0,0,0,6.8,35.97c-.175.988.893,2.127,1.154,2.97l-1.753.4-.486.219c-.188.073-.26.09-.454.175-1.215.537-.879,1.982.48,1.964,4.919-1.868,3.708-.236,5.858.968a9.665,9.665,0,0,1-.674,1.667c-.219.542-.406,1.073-.617,1.663-.41,1.147-.721,2.3-1.043,3.539-1.209-.172-1.136-.287-1.544-1.342a22.56,22.56,0,0,0-.628-2.2c-.558-.711-2.744-.642-1.276,2.814-.259.256.094.1-.432.18-.449.071-2.648-.139-2.336,1.375.237,1.148,1.555.623,2.441.6a3.868,3.868,0,0,1,.541.02l.348.12a4.923,4.923,0,0,1,2.442.514c-.264,2.437-1.105,4.9,1.019,5.976a2.618,2.618,0,0,0,2.919-.34c.928-.773.683-1.413,1.214-2.694,1.163.455,2.265,2.676,2.778,3.729a1,1,0,0,0,1.9-.163c.139-.776-.684-1.8-.827-2.376.755-.322,1.881-.34,2.43-.9a.992.992,0,0,0-1.076-1.624c-2.24.664-2.355,1.153-3.624-.038a6.1,6.1,0,0,0-.934-.777c.2-1.584,3.367-8.056,4.713-9.059,1.435,1.875.942,1.387.907,3.261-.135,7.181,2.634,5.577,2.534,4.259a14.374,14.374,0,0,1-.533-3.967c.453.156,2.067,1.733,2.736,1.894a1,1,0,0,0,1.285-.984c-.022-.676-.705-.967-1.138-1.257A16.036,16.036,0,0,1,20.7,41.714c.66-1.112,5.408-4.653,7.02-5.829.229-.167.3-.21.5-.361.294-.218.283-.282.656-.356A76.368,76.368,0,0,1,30.007,46.63a45.724,45.724,0,0,1-.812,11.713c-.926,3.642-2.516,5.631-6.289,6.345-1.991.377-10.177.7-11.8.1A10.445,10.445,0,0,1,6.44,63.058a7.125,7.125,0,0,1-1.609-1.54c-.572-.72-.647-1.368-1.948-1.044-.884.889-.216,1.821.732,2.8,2.681,2.777,5.27,3.53,9.5,3.88a62.594,62.594,0,0,0,8.692-.214,10.842,10.842,0,0,0,6.448-2.579,11.715,11.715,0,0,0,3.026-5.891c.357-1.787.347-2.147.6-3.862.238-1.635.148-7.134.155-8.764L31.812,41.6a37.223,37.223,0,0,0-.445-4.014c-.139-1.232-.643-3.312-.643-3.924,2.05-1.085,2.151-3.272,3.589-3.273a1.143,1.143,0,0,1,1.071.57c.255.376.426.66.713,1.027a6.857,6.857,0,0,0,1.8,1.675,7.8,7.8,0,0,1-.28,1.677c-.312,1.373-.529,3.7-.73,5.252a94.952,94.952,0,0,0,0,15.4,17.087,17.087,0,0,0,1.479,5.481,7.892,7.892,0,0,0,2.061,2.941c1.626,1.645,3.621,2,5.638,2.41,1.187.244,2.545.145,3.718.305a46.064,46.064,0,0,0,7.808-.18,11.224,11.224,0,0,0,8.6-5.316l.7-1.362a14.565,14.565,0,0,0,1.007-3.016,26.125,26.125,0,0,0,.661-5.321,59.04,59.04,0,0,0-.5-9.508c-.245-1.744-.672-5.328-1.046-6.893L66,30.576a60.172,60.172,0,0,0-4.286-11.809c-.244-.486-.467-.858-.725-1.341-.761-1.427-.861-1.954-2.148-1.7-.829,1.361-.58.876.6,3.146,4.382,8.4,6.036,17.641,6.946,27.2.537,5.635.118,12.923-3.152,16.095a10.41,10.41,0,0,1-6.852,2.808,54.353,54.353,0,0,1-9.412-.1c-6.695-.629-7.942-5.533-8.259-11.412a80.5,80.5,0,0,1,1.017-18.294,4.73,4.73,0,0,1,1.541,1,13.311,13.311,0,0,1,1.42,1.1,37.893,37.893,0,0,1,5.218,4.456,15.865,15.865,0,0,1-4.42,4.835c-.445.315-1.061.55-1.135,1.162a.987.987,0,0,0,1.186,1.1c.86-.139,2.28-1.74,2.829-1.913a16.253,16.253,0,0,1-.106,2.083c-.087.636-.337,1.267-.411,1.785-.2,1.4,2.594,3.058,2.522-3.942a8.888,8.888,0,0,1-.028-2.137,10.738,10.738,0,0,1,.969-1.317c1.079.888,4.4,7,4.676,9.029-2.305,1.539-.785,1.962-4.553.823a1,1,0,0,0-1.082,1.63c.545.536,1.72.583,2.432.89-.162.613-.979,1.543-.829,2.379a.992.992,0,0,0,1.9.156,9.025,9.025,0,0,1,2.747-3.791c.481,1.159.357,2,1.192,2.714a2.661,2.661,0,0,0,4.423-2.11c0-1.138-.379-2.429-.438-3.562a13.824,13.824,0,0,1,2.334-.5c.932-.109,2.021.158,2.643.072a.983.983,0,0,0,.551-1.664c-.476-.483-1.748-.46-2.486-.474a18.653,18.653,0,0,0,.459-2.361.987.987,0,0,0-1.707-.673,13.72,13.72,0,0,0-.685,2.258c-.4,1.04-.342,1.165-1.541,1.35-.346-1.245-.637-2.392-1.035-3.532a26.916,26.916,0,0,1-1.3-3.344c.579-.318,1.862-1.709,2.127-1.778a8.106,8.106,0,0,1,3.222.61c1.663.686,2.13-.946,1.351-1.563a10.038,10.038,0,0,0-3.06-.963c.139-.627,1.2-1.917,1.18-2.8a.972.972,0,0,0-1.085-.975c-1.076.084-.656,1.24-2.58,3.63a14.124,14.124,0,0,1-2.108,2.053,2.8,2.8,0,0,1-.55-.783c-.9-1.47-3.151-4.3-4.371-4.968.1-.42.235-.483.52-.745.654-.6,1.138-1.417,1.738-2.066.644-.7,3.557-.612,4.532-.41.613.128,1.343.583,1.931.137a1,1,0,0,0-.175-1.667c-1.192-.693-3.053-.557-4.491-.584.371-.848,2.822-4.963,2.1-6.055a1.009,1.009,0,0,0-1.456-.184c-.511.438-.852,2.773-1.953,4.407-.388-.486-.333-3.13-1.037-3.8a1.048,1.048,0,0,0-1.611.341c-.216.57,1.207,5.214.646,6.5a18.452,18.452,0,0,1-2.348,2.649,44.343,44.343,0,0,1-4.908-4.757,18.091,18.091,0,0,1-2.751-3.053c.169-.425.362-.684.571-1.107.2-.4.319-.7.5-1.122a17.3,17.3,0,0,0,.833-2.461c1.64-6-.55-8.5,1.436-11.261.669-.931,2.667-2.319,4.579-1.7,1.455.179,3.3,2,4.192,2.969.563.615,1.106,1.226,1.669,1.92.635.783.848,1.65,2.251,1.223.738-1.054.3-1.283-.7-2.556L55.22,9.494c-1.514-1.514-2.858-2.808-5.026-3.348a6.676,6.676,0,0,0-7.939,5.881c-.078,1.04.239,3.647.1,5.428A19.3,19.3,0,0,1,41.342,22.1a5.9,5.9,0,0,1-.94,1.888c-.1-.39-.243-.289-.623-1.225-.534-1.313-.355-3.84-.355-5.3,0-4.788.1-10.334.005-15.013A2.7,2.7,0,0,0,37.868.2c-.826-.422-6.331-.364-7.053-.05A2.72,2.72,0,0,0,29.2,2.341c-.229,2.227-.124,15.153-.1,18.709.011,2.139-.707,2.324-.871,2.936a2.038,2.038,0,0,1-.559-.963,16.086,16.086,0,0,1-1.119-3.666,22.282,22.282,0,0,1-.186-5.936A6.634,6.634,0,0,0,16,7.191a21.84,21.84,0,0,0-3.635,3.433l-1.105,1.287c-.22.288-.428.585-.649.873A43.408,43.408,0,0,0,5,23.051L3.753,26.593c-.492,1.792-.9,2.985-1.346,4.962C1.782,34.324,1.354,36.8.894,39.612L.373,43.767c-.039.41-.064,1.016-.129,1.5A41.274,41.274,0,0,0,.665,57.089c.117.551.433,2.051,1.458,1.593Z" transform="translate(-0.001 0.099)" fill="#2b2a29" fill-rule="evenodd"/>
      <path id="Path_405" data-name="Path 405" d="M1279.769,275.23a44.441,44.441,0,0,0,4.908,4.757,18.426,18.426,0,0,0,2.348-2.649c.56-1.29-.862-5.934-.646-6.5a1.048,1.048,0,0,1,1.611-.341c.7.672.648,3.316,1.037,3.8,1.1-1.634,1.443-3.968,1.953-4.407a1.009,1.009,0,0,1,1.456.184c.722,1.092-1.729,5.207-2.1,6.055,1.438.027,3.3-.109,4.491.584a1,1,0,0,1,.176,1.667c-.589.446-1.318-.009-1.931-.137-.975-.2-3.887-.287-4.532.41-.6.649-1.083,1.467-1.738,2.066-.285.261-.416.325-.52.745,1.219.664,3.473,3.5,4.371,4.968a2.8,2.8,0,0,0,.55.783,14.15,14.15,0,0,0,2.108-2.053c1.923-2.389,1.5-3.546,2.579-3.63a.972.972,0,0,1,1.085.975c.019.884-1.041,2.175-1.179,2.8a10.03,10.03,0,0,1,3.06.963c.779.617.312,2.249-1.351,1.563a8.094,8.094,0,0,0-3.222-.61c-.266.068-1.548,1.459-2.127,1.778a26.851,26.851,0,0,0,1.3,3.344c.4,1.14.689,2.287,1.035,3.532,1.2-.185,1.14-.31,1.541-1.35a13.712,13.712,0,0,1,.685-2.258.987.987,0,0,1,1.707.673,18.691,18.691,0,0,1-.459,2.361c.738.014,2.01-.01,2.486.474a.983.983,0,0,1-.551,1.664c-.622.087-1.71-.181-2.643-.072a13.763,13.763,0,0,0-2.334.5c.059,1.133.442,2.425.438,3.563a2.661,2.661,0,0,1-4.423,2.11c-.835-.715-.712-1.556-1.192-2.714a9.025,9.025,0,0,0-2.747,3.791.992.992,0,0,1-1.9-.156c-.151-.837.667-1.767.828-2.379-.712-.307-1.887-.354-2.432-.89a1,1,0,0,1,1.082-1.63c3.767,1.139,2.247.717,4.552-.823-.272-2.034-3.6-8.141-4.676-9.029a10.754,10.754,0,0,0-.969,1.317,8.893,8.893,0,0,0,.028,2.137c.072,7-2.72,5.341-2.522,3.942.073-.518.324-1.149.41-1.785a16.249,16.249,0,0,0,.106-2.083c-.549.174-1.969,1.774-2.829,1.913a.987.987,0,0,1-1.186-1.1c.074-.613.69-.848,1.135-1.162a15.861,15.861,0,0,0,4.42-4.835,37.923,37.923,0,0,0-5.218-4.456c-.221.046-.222.009-.339.772-.928,6.066-1.39,16.976.649,22.285,1.42,3.7,3.221,3.935,3.971,4.556a54.353,54.353,0,0,0,9.412.1,10.41,10.41,0,0,0,6.853-2.808c3.269-3.172,3.688-10.46,3.152-16.095-.91-9.557-2.563-18.8-6.946-27.2-1.184-2.27-1.432-1.785-.6-3.146a78.333,78.333,0,0,0-.933-1.421c-1.4.427-1.616-.44-2.251-1.223-.562-.694-1.105-1.3-1.669-1.92-.887-.969-2.737-2.79-4.192-2.969-.755.162-1.4,1.065-1.729,1.617-1.2,2.03-.67,3.6-.623,5.7a27.407,27.407,0,0,1-2.4,12.243c-.519,1.025-.65.693-.417,1.142Z" transform="translate(-1235.14 -246.24)" fill="#f79571" fill-rule="evenodd"/>
      <path id="Path_406" data-name="Path 406" d="M345.581,63.35h-4.126c-1.365,0-1.048.864-1.048,2.881V78.194c0,6.237.45,6.768-4.128,11.8-.623.684-1.226,1.372-1.868,2.047a79.715,79.715,0,0,1-6.227,5.736,21.888,21.888,0,0,0-6.474,9.409,34.646,34.646,0,0,0-1.688,6.223,14.491,14.491,0,0,0-.371,3.438.644.644,0,0,0,1.2.022,16.413,16.413,0,0,0,.416-1.648,33.382,33.382,0,0,1,4.985-10.9c2.62-3.722,6.634-6.64,10.446-9.344a15.516,15.516,0,0,0,3.289-2.693c.653-.737,1.18-2.533,3.529-2.528A3.277,3.277,0,0,1,346.15,91c1.655,2.3,1.482,2.038,4.05,3.887.783.564,1.563,1.1,2.35,1.672a34.236,34.236,0,0,1,8.17,7.707,38.394,38.394,0,0,1,5.03,10.854c.119.471.213,1.1.363,1.578.187.591.813.8,1.176.278.73-1.052-1.588-8.685-1.957-9.717a22.287,22.287,0,0,0-6.419-9.449c-1.355-1.091-2.846-2.542-4.209-3.728a41.751,41.751,0,0,1-3.91-4.032c-4.519-5.122-4.178-5.205-4.178-11.641l.006-13.925c-.008-.843-.177-1.136-1.042-1.136Z" transform="translate(-309.202 -61.284)" fill="#ffce29" fill-rule="evenodd"/>
      <path id="Path_407" data-name="Path 407" d="M157.808,1099.078l-1.278-.017c-.117,4.377,1.012,10.008,4.561,12.673a9.646,9.646,0,0,1,1.445,1.039c1.62.593,9.806.272,11.8-.1,3.773-.714,5.363-2.7,6.289-6.345a45.728,45.728,0,0,0,.812-11.713,76.41,76.41,0,0,0-1.125-11.461c-.373.074-.362.137-.656.356-.2.151-.275.194-.5.361-1.612,1.177-6.36,4.718-7.02,5.83a16.041,16.041,0,0,0,4.426,4.839c.433.29,1.115.582,1.138,1.257a1,1,0,0,1-1.285.984c-.67-.161-2.284-1.738-2.736-1.894a14.376,14.376,0,0,0,.533,3.967c.1,1.318-2.669,2.922-2.534-4.259.035-1.875.528-1.386-.907-3.261-1.346,1-4.509,7.475-4.713,9.059a6.109,6.109,0,0,1,.934.777c1.268,1.192,1.384.7,3.624.038a.992.992,0,0,1,1.076,1.624c-.55.558-1.676.576-2.43.9.142.579.966,1.6.827,2.376a1,1,0,0,1-1.9.164c-.513-1.054-1.615-3.274-2.778-3.73-.531,1.281-.286,1.921-1.214,2.694a2.617,2.617,0,0,1-2.919.34c-2.124-1.072-1.283-3.539-1.019-5.976a4.925,4.925,0,0,0-2.442-.514Z" transform="translate(-151.426 -1047.882)" fill="#f79571" fill-rule="evenodd"/>
      <path id="Path_408" data-name="Path 408" d="M187.3,285.473l1.753-.4c-.261-.843-1.329-1.981-1.154-2.97a.96.96,0,0,1,1.167-.767c1.012.182.7,1.556,2.483,3.619a12.924,12.924,0,0,0,2.11,2.05c.42-.431,1.255-2,2.236-3.123a13.206,13.206,0,0,1,2.676-2.636,1.372,1.372,0,0,0-.509-.741c-.887-.88-1.006-1.238-1.749-2.055-.591-.65-3.562-.615-4.525-.417-.655.135-1.329.566-1.934.131a.984.984,0,0,1,.175-1.661c1.263-.684,2.933-.528,4.488-.59-.379-.824-2.748-4.85-2.143-5.99a1.024,1.024,0,0,1,1.447-.3c.421.309.508,1,.678,1.5a12.892,12.892,0,0,0,1.335,2.919c.489-.8.286-3.2,1.089-3.821a1.033,1.033,0,0,1,1.551.407c.191.494-.2,1.466-.311,2.012-.164.8-.63,3.8-.333,4.489a19.576,19.576,0,0,0,2.355,2.652,70.9,70.9,0,0,0,5.869-5.644,20.43,20.43,0,0,0,1.784-2.173c-.233-.616-.69-1.351-.972-1.992a17.567,17.567,0,0,1-.818-2.255c-1.6-5.5-.033-8.575-.985-10.74a4.5,4.5,0,0,0-3.3-2.666c-1.34.375-4.642,4.408-5.665,5.844-4.973,6.987-7.655,16.1-8.878,24.7a1.62,1.62,0,0,0-.024.27c.027.33-.051.107.107.334Z" transform="translate(-181.098 -246.037)" fill="#f79571" fill-rule="evenodd"/>
      <path id="Path_409" data-name="Path 409" d="M63.175,300.752a5.057,5.057,0,0,1,.342.848,8.635,8.635,0,0,0,.419.941c1.3-.325,1.376.324,1.948,1.044a7.124,7.124,0,0,0,1.609,1.54,10.449,10.449,0,0,0,4.669,1.734,9.637,9.637,0,0,0-1.445-1.039c-3.549-2.665-4.678-8.3-4.561-12.673l1.278.017-.348-.121a3.78,3.78,0,0,0-.541-.02c-.886.027-2.2.552-2.441-.6-.312-1.514,1.887-1.3,2.336-1.375.526-.083.173.076.432-.18a.925.925,0,0,1-.77,0c.2-.456-.021-1.142.182-1.848l.091-.277c.006-.035.012-.059.016-.094a8.28,8.28,0,0,1-.032-1.387,24.954,24.954,0,0,1,.435-3.506c-1.359.018-1.7-1.427-.48-1.964.193-.086.265-.1.454-.175l.486-.219c-.159-.228-.08,0-.107-.334a1.581,1.581,0,0,1,.024-.27c1.224-8.6,3.9-17.717,8.878-24.7,1.022-1.437,4.325-5.469,5.665-5.844-2.257-.676-4.438,1.274-5.875,2.8-8.033,8.551-10.812,20.225-12.239,31.924a58.831,58.831,0,0,0-.482,8.374,28.855,28.855,0,0,0,.373,4.161c.252,1.443.992,2.642-.316,3.241Z" transform="translate(-61.053 -241.967)" fill="#ef6331" fill-rule="evenodd"/>
      <path id="Path_410" data-name="Path 410" d="M1193.321,1112.736c-.75-.621-2.551-.858-3.971-4.556-2.039-5.308-1.577-16.218-.649-22.285.117-.763.118-.726.339-.771a13.407,13.407,0,0,0-1.419-1.1,4.736,4.736,0,0,0-1.541-1,80.475,80.475,0,0,0-1.017,18.294c.317,5.878,1.564,10.783,8.259,11.412Z" transform="translate(-1146.344 -1047.766)" fill="#ef6331" fill-rule="evenodd"/>
      <path id="Path_411" data-name="Path 411" d="M1289.031,270.577c-.233-.449-.1-.117.416-1.142a27.407,27.407,0,0,0,2.4-12.243c-.047-2.1-.578-3.669.623-5.7.326-.552.974-1.455,1.729-1.616-1.912-.623-3.91.765-4.579,1.7-1.986,2.763.2,5.263-1.436,11.261a17.287,17.287,0,0,1-.833,2.461c-.183.422-.3.721-.5,1.122-.21.423-.4.682-.571,1.107a18.091,18.091,0,0,0,2.751,3.053Z" transform="translate(-1244.401 -241.588)" fill="#ef6331" fill-rule="evenodd"/>
      <path id="Path_412" data-name="Path 412" d="M155.833,1258.446a24.965,24.965,0,0,0-.435,3.506,8.286,8.286,0,0,0,.032,1.387c0,.035-.01.06-.016.094l-.091.277c-.2.706.019,1.392-.182,1.848a.925.925,0,0,0,.77,0c-1.468-3.457.719-3.525,1.276-2.814a22.524,22.524,0,0,1,.628,2.2c.408,1.055.335,1.171,1.544,1.342.322-1.241.633-2.392,1.043-3.539.211-.59.4-1.121.617-1.663a9.677,9.677,0,0,0,.674-1.667c-2.151-1.2-.94-2.836-5.858-.968Z" transform="translate(-150.089 -1216.652)" fill="#f79571" fill-rule="evenodd"/>
    </g>
  </g>
</svg>
