<svg id="Layer_x0020_1" xmlns="http://www.w3.org/2000/svg" width="23.241" height="22.757" viewBox="0 0 23.241 22.757">
  <g id="_2126440109392" transform="translate(0 0)">
    <path id="Path_297" data-name="Path 297" d="M125.28,2398c.056.239.294.261.579.261H146.4c.26,0,.471-.047.521-.261a.5.5,0,0,0-.123-.108l-1.035-.96c-.042-.042-.013-.02-.053-.063l-1.37-1.262c-.05-.043-.066-.062-.121-.109l-3.067-2.863c-.469-.405-.9-.852-1.362-1.27a8.686,8.686,0,0,0-.767-.679c-.186,0-.269.109-.415.193-.093.053-.085.072-.169.121l-1.027.679c-.246.134-.447.338-.695.462l-.173.116a.45.45,0,0,1-.092.052c-.181.1-.32.294-.588.087l-.342-.236a1.649,1.649,0,0,1-.178-.111l-1.912-1.27c-.223-.19-.322-.069-.507.117-.228.229-.509.447-.734.683l-.119.112a1.059,1.059,0,0,1-.126.106,2.373,2.373,0,0,0-.251.241l-.777.727-.015.013-.2.179c-.343.291-.644.631-.988.921l-1.336,1.239c-.058.054-.092.07-.142.118l-.606.581c-.426.36-.809.778-1.228,1.144L125.28,2398Z" transform="translate(-124.485 -2375.508)" fill="#bc2f2f" fill-rule="evenodd"/>
    <path id="Path_298" data-name="Path 298" d="M.02,1430.255c0,1.263-.042,12.335.019,12.588.027.111.063.158.16.138a.174.174,0,0,0,.079-.031l1.026-.944c.222-.223.473-.417.688-.643l.027-.031,1.089-.993c.167-.165.315-.3.483-.471l.677-.625a.7.7,0,0,1,.062-.054,1.088,1.088,0,0,0,.115-.117l1.769-1.644.015-.014c.027-.025.033-.028.061-.055l1.244-1.156a1.712,1.712,0,0,1,.239-.224c.219-.15.093-.062.2-.289l-3.528-2.344c-.248-.158-.49-.361-.749-.5l-.257-.177a.511.511,0,0,0-.115-.087l-.637-.405a.69.69,0,0,0-.116-.087l-.26-.174a.981.981,0,0,1-.13-.073c-.32-.237-.709-.45-1-.676s-.609-.32-.808-.667l-.152-.253c-.051-.1-.009-.085-.118-.114-.045.03-.087.038-.087.116Z" transform="translate(-0.006 -1421.06)" fill="#bc2f2f" fill-rule="evenodd"/>
    <path id="Path_299" data-name="Path 299" d="M2408.41,1435.681c0,.152.27.343.427.5l1.708,1.59c.045.042.083.068.124.107l1.331,1.244c.284.247.571.555.854.794l1.1,1.016c.078.066.053.054.118.114l.778.726.014.015,1.039.957c.452.459.415,0,.463-.45l-.022-.772c0-3.691-.031-7.384,0-11.075,0-.207.04-.262-.087-.347-.167.044-3.005,2.315-3.336,2.536-.058.046-.063.039-.123.08l-1,.675c-.148.117-.584.352-.753.491l-1,.677c-.2.152-.449.26-.647.423-.146.119-.347.22-.506.333-.083.058-.471.263-.471.367Z" transform="translate(-2393.119 -1421.021)" fill="#bc2f2f" fill-rule="evenodd"/>
    <path id="Path_300" data-name="Path 300" d="M72.126,10.728c.174,0,.116-.121.116-.231V3.47c0-.113.006-.289.116-.289H87.923c.187,0,.116.637.116.839v6.3c0,.273-.031.59.327.3l.3-.194c.057-.036.067-.033.113-.061l1.42-.952c.333-.232,1.268-1.066,1.09-1.495a2.992,2.992,0,0,0-.868-1.159L89.2,5.948c-.216-.158-.24-.152-.24-.454V2.574c0-.228.048-.318-.317-.319-.71,0-4.723.046-4.986-.02a1.68,1.68,0,0,1-.449-.245L81.458.823,81.442.81,81.426.8,80.873.424A5.646,5.646,0,0,0,80.2,0a.524.524,0,0,0-.354.138c-.149.123-.315.2-.472.309L78.32,1.16c-.054.035-.072.027-.135.067a.784.784,0,0,0-.1.078l-1.3.865a1.447,1.447,0,0,1-.725.085c-.393,0-4.473-.044-4.654.033-.122.052-.1.12-.1.23.041.56,0,2.171.005,2.773,0,.269.056.443-.164.617-.733.483-2.12,1.309-2.189,2.115-.052.6,1.363,1.542,1.993,1.964.167.143.7.463.908.6.1.06.113.144.261.144Z" transform="translate(-68.524 0)" fill="#bc2f2f" fill-rule="evenodd"/>
    <path id="Subtraction_2" data-name="Subtraction 2" d="M4.532,8.781a6.734,6.734,0,0,1-.957-.09,2.507,2.507,0,0,1-.511-.106l-.171-.051-.407-.143L1.448,7.782a.716.716,0,0,0-.086-.064C1.341,7.7,1.319,7.69,1.3,7.672A2.261,2.261,0,0,1,.9,7.233L.863,7.182.774,7.067.5,6.641A.218.218,0,0,0,.475,6.6a.176.176,0,0,1-.03-.041L.218,5.974a1.4,1.4,0,0,0-.07-.225,1.12,1.12,0,0,1-.06-.2A6.855,6.855,0,0,1,0,4.544,7.11,7.11,0,0,1,.09,3.535a1.208,1.208,0,0,1,.061-.221,1.893,1.893,0,0,0,.062-.206l.221-.589c.012-.023.023-.041.036-.06a.8.8,0,0,0,.06-.1l.184-.338A.557.557,0,0,1,.776,1.93a.571.571,0,0,0,.06-.076l.342-.439.072-.071.038-.037A3.334,3.334,0,0,1,1.9.78l.03-.017A.2.2,0,0,0,1.977.732L1.99.72l.235-.14A.277.277,0,0,0,2.289.536.285.285,0,0,1,2.383.478a.639.639,0,0,1,.085-.03A.378.378,0,0,0,2.589.4.264.264,0,0,0,2.648.353C2.666.336,2.671.331,2.76.3c.033-.01.058-.016.081-.021A.673.673,0,0,0,2.958.245,4.828,4.828,0,0,1,4.05,0l.243,0h.041l.208,0A3.73,3.73,0,0,1,5.37.073c.13.03.215.046.277.058a2.228,2.228,0,0,1,.46.131A1.211,1.211,0,0,0,6.249.3a.67.67,0,0,1,.208.074c.05.029.12.063.212.108a3.383,3.383,0,0,1,.624.359.064.064,0,0,0,.015.013l.422.388a2.06,2.06,0,0,1,.367.5c.039.068.075.129.11.18a.442.442,0,0,1,.076.172.594.594,0,0,0,.06.155.522.522,0,0,1,.093.262c0,.032.01.07.018.118.048.262.079.373.1.439a1.087,1.087,0,0,1,.022.423c0,.091-.005.208-.008.36l-.161.8-.286.636a2.435,2.435,0,0,1-.354.516l-.529.482c-.056.036-.108.076-.158.114a1.2,1.2,0,0,1-.274.176.648.648,0,0,1-.064.023.605.605,0,0,0-.1.041c-.033.017-.051.028-.065.038a.331.331,0,0,1-.086.044l-.558.138a1.044,1.044,0,0,1-.154.011,1.3,1.3,0,0,1-.855-.324l-.26-.2a.9.9,0,0,1-.334.273l-.039.019c-.023.011-.023.011-.029.017a.423.423,0,0,1-.04.031,1.7,1.7,0,0,1-.6.18l-.041,0c-.071.006-.123.01-.173.01a.932.932,0,0,1-.132-.01.855.855,0,0,1-.182-.043c-.033-.011-.069-.023-.118-.035a1.3,1.3,0,0,1-.529-.25,1.7,1.7,0,0,1-.62-.944l-.125-.655a2.572,2.572,0,0,1,.086-.839V4.084l.007-.034c.01-.049.021-.1.03-.144a2.408,2.408,0,0,1,.147-.456l.043-.108.008-.021a2.878,2.878,0,0,1,.368-.615L2.657,2.4a1.481,1.481,0,0,1,.491-.336l.035-.016.072-.034a1.952,1.952,0,0,1,.733-.156l.058,0a1.691,1.691,0,0,1,.92.268.516.516,0,0,1,.056.054l.006.007c.045.05.092.1.151.1.119,0,.126-.028.141-.074A.23.23,0,0,1,5.4,2.081c.006-.006.216-.122.224-.124a.955.955,0,0,1,.293-.044.734.734,0,0,1,.538.195c.208.219.07.7-.041,1.091-.036.128-.068.242-.084.331a.661.661,0,0,1-.05.16.752.752,0,0,0-.038.1,1.809,1.809,0,0,0-.055.245,1.707,1.707,0,0,1-.079.319,3.691,3.691,0,0,0-.153.887.411.411,0,0,0,.377.434A.858.858,0,0,0,6.9,5.429a2.591,2.591,0,0,0,.189-.214.415.415,0,0,0,.045-.077l.006-.013.021-.04a.374.374,0,0,1,.044-.066.326.326,0,0,0,.04-.054L7.6,4.1a2.643,2.643,0,0,0-.084-1.4.8.8,0,0,1-.062-.144.766.766,0,0,0-.1-.209,1.821,1.821,0,0,1-.106-.178,1.29,1.29,0,0,0-.271-.342,1.891,1.891,0,0,0-.417-.339l-.017-.01c-.042-.027-.086-.055-.137-.09l-.163-.1a1.252,1.252,0,0,1-.165-.078l-.064-.036L5.514,1,4.657.871a6.315,6.315,0,0,0-.88.078L3.652.967l-.659.208a.259.259,0,0,0-.053.037.269.269,0,0,1-.088.053.626.626,0,0,1-.064.022.39.39,0,0,0-.083.033l-.273.159a.432.432,0,0,0-.067.051.477.477,0,0,1-.063.052,4.116,4.116,0,0,0-.512.445l-.057.056a.267.267,0,0,0-.059.07.514.514,0,0,1-.042.06l-.338.529a2.544,2.544,0,0,0-.264.785l0,.017a1.08,1.08,0,0,1-.043.141.864.864,0,0,0-.053.2,4.665,4.665,0,0,0,0,1.294,1.016,1.016,0,0,0,.043.16l0,.012c.014.042.03.088.043.143a1.769,1.769,0,0,0,.118.379c.022.051.048.11.088.225a2.984,2.984,0,0,0,.906,1.118c.053.033.1.068.156.1l.008.005a1.779,1.779,0,0,0,.34.2,5.14,5.14,0,0,0,.922.293,7.189,7.189,0,0,0,.955.064,4.107,4.107,0,0,0,1.1-.125,1.686,1.686,0,0,1,.213-.044A1.242,1.242,0,0,0,6.1,7.638c.093-.04.176-.072.255-.1a2.791,2.791,0,0,0,.561-.268.714.714,0,0,1,.089-.046.465.465,0,0,0,.1-.055c.037-.026.087-.065.147-.11a2.337,2.337,0,0,1,.758-.46A.483.483,0,0,1,8.42,7c0,.2-.18.362-.339.5-.044.038-.085.075-.121.11l-.2.174a.95.95,0,0,1-.113.074,1.142,1.142,0,0,0-.1.061,3.918,3.918,0,0,1-.552.321L6.884,8.3a.862.862,0,0,1-.161.061l-.017.005-.079.026a.9.9,0,0,0-.086.041.659.659,0,0,1-.157.064c-.05.012-.09.019-.126.025a.859.859,0,0,0-.158.037c-.039.013-.068.026-.094.037a.72.72,0,0,1-.164.051c-.135.025-.3.044-.439.06l-.177.021A5.233,5.233,0,0,1,4.532,8.781ZM4.171,2.722a.883.883,0,0,0-.548.211,1.808,1.808,0,0,0-.59.971,2.983,2.983,0,0,0-.082.726v.02c0,.552,0,.829.438,1.163a.6.6,0,0,0,.378.132,1.459,1.459,0,0,0,1.126-.992l.042-.118a2.2,2.2,0,0,0,.157-.956,1.35,1.35,0,0,0-.129-.625l-.064-.1c-.092-.145-.1-.154-.313-.3A.729.729,0,0,0,4.171,2.722Z" transform="translate(7.364 4.448)" fill="#bc2f2f"/>
  </g>
</svg>
