<svg id="Layer_x0020_1" xmlns="http://www.w3.org/2000/svg" width="118.602" height="124.66" viewBox="0 0 118.602 124.66">
  <g id="_2474475295632" transform="translate(0 0)">
    <path id="Path_148" data-name="Path 148" d="M102.876,799.334l-92.1-1.1L6.76,790.708c1.521-17.959,30.381-5.747,33.836-11.015,6.349-9.682,6.483-50.416,27.948-54.372,16.789-2.2,29.081,3.4,34.332,21.2v52.818Z" transform="translate(15.263 -674.946)" fill="#ef6331" fill-rule="evenodd"/>
    <path id="Path_149" data-name="Path 149" d="M27.284,611.455c-3.5,1.352-5.683,7.38-1.928,11.921,3.056,3.695,9.382,2.661,15.023,2.665,3.543,0,23.527.367,26.127-.388a9.791,9.791,0,0,0,5.163-3.7c2.868-5.439,13.105-36.654,13.914-37.574.871-.992,2.142-.315,1.82,1.25l-2.123,6.059c-2.249,4.461-9.272,27.658-11.7,31.412l-3.134,3.24c-2.645.931-3.146,1.879-6.926,1.922-9.359.107-62.317.28-63.024-.287-.555-.683-.407-.983-.4-2.182.077-9.818-1.114-8.641,3.886-8.789-.054-9.222-.62-6.452,5.133-7.077l-.01-11.683c-2.073-.227-7.481.588-8.806-.546a17.72,17.72,0,0,1,.064-6.462c1.534-.576,25.3-.576,26.709,0a15.95,15.95,0,0,1-.021,6.653c-1.716.786-6.437.087-8.707.358l0,11.668a35.931,35.931,0,0,0,6.871-.032c1.081-.32,2.141-1.609,5.259-1.857,3.744-.3,2.99.66,5.259-1.7,7.293-7.581,6.932-18,.979-25.448a12.187,12.187,0,0,1-9.273-2.034c-1.775,1.279-5.467,6-7.1,6.545-1.491-.447-.994-1.052-2.442-1.566-.431.62-3.264,3.619-4.059,3.935-1.047-.148-2.941-2.391-3.631-3.072-5.133-5.069-3.191-3.106.762-8.052-.894-1.459-2.866-1.973-.833-3.958,1.2-1.172,2.194-2.194,3.389-3.375l17.165-17.156c.933-.955,2.407-2.974,3.948-3.1l2.522,2.4,3.128-2.837c-2.545-3.592-4.023-1.952.156-6.209,2.406-2.451,2.162-1.817,6.469,2.464,1.977,1.966,3.753,3.768,5.733,5.711,1.661,1.631.9,2.068-.417,3.353-3.241,3.176-2.83,4.019-6.078.343a10.053,10.053,0,0,0-3.012,2.867c.637,1.336,2.3,2.152,2.387,2.86-.2,1.309-1.6,2.065-2.371,3.12.918,1.928,1.7,2.537,2.114,5.219.18,1.174-.07,2.862.077,3.572.19.921,9.635,9.4,7.856,24.861a31.1,31.1,0,0,1-1.324,5.95c-.533,1.68-1.9,4.154-2.145,5.3l5.671-.017c.992-2.572,1.845-6.607,2.623-9.5l7.939-29.005c10.521-27.455,52.65-21.91,52.609,11.051V623.7c0,.966.072,2.2.018,3.131-.081,1.388-.4,1.507-1.824,1.283-.846-1.66-.4-41.523-.393-46.8.006-7.785-1.7-13.413-5.66-18.092-13.95-16.5-38.753-9.171-43.44,9.636-.886,3.554-9.655,36.752-10.386,37.2-5.085,1.207-27.307-1.382-29.626,1.4Z" transform="translate(-0.03 -503.711)" fill="#04143a" fill-rule="evenodd"/>
    <path id="Path_150" data-name="Path 150" d="M360.388.345c10.994,1.9,20.6,12.034,18.335,25.508a22.171,22.171,0,0,1-43.742-7.264C336.732,7.723,347.246-1.929,360.388.346Z" transform="translate(-283.501 -0.011)" fill="#04143a" fill-rule="evenodd"/>
    <path id="Path_151" data-name="Path 151" d="M430.307,103.553c-3.791,5.64-16.271,8.667-24.4,3.436a19.666,19.666,0,0,1-7.853-8.532c-1.287-2.613-3.306-11.322-1.138-13.731-.039,1.078.05.494.109.74a17.886,17.886,0,0,1,4.033-6.721,18.307,18.307,0,0,1,1.471-1.4c6.182-5.087,14.632-6.465,21.691-2.2a18.763,18.763,0,0,1,9.215,12.16C435.834,97.057,429.821,102.668,430.307,103.553Z" transform="translate(-342.666 -67.612)" fill="#ef6331" fill-rule="evenodd"/>
    <path id="Path_152" data-name="Path 152" d="M1153.368,765.029l-20.755,20.945a71.052,71.052,0,0,1-7.873-7.914c1.035-.438,5.523-5.318,6.757-6.505l10-10.012C1146.89,756.339,1148.808,761.114,1153.368,765.029Z" transform="translate(-1112.224 -706.968)" fill="#ffce29" fill-rule="evenodd"/>
    <path id="Path_153" data-name="Path 153" d="M1002.8,1105.963c-.56.453-1,.38-2.069.366l-7.736-.021c.4-1.067,8.646-8.136,5.333-20.4-.786-2.911-1.951-4.256-2.852-6.447a24.615,24.615,0,0,0,2.506-1.805c.941-.937,1.2-1.92,3.173-1.381,1.262.767,2.627,4.476,3.251,6.192a28.869,28.869,0,0,1,.521,16.673c-.392,1.44-1.753,5.65-2.912,6.768l.785.05Z" transform="translate(-955.689 -1002.014)" fill="#ffce29" fill-rule="evenodd"/>
    <path id="Path_154" data-name="Path 154" d="M400.665,65.892c-.486-.885,5.528-6.5,3.125-16.249a18.761,18.761,0,0,0-9.215-12.16c-7.059-4.264-15.51-2.886-21.691,2.2a18.067,18.067,0,0,0-1.471,1.4,17.877,17.877,0,0,0-4.033,6.721c-.06-.245-.149.338-.11-.74-.048-4.345,5.554-10.565,10.454-12.924a19.988,19.988,0,0,1,28.327,14.545c1.2,7-1.555,13.932-5.385,17.205Z" transform="translate(-313.024 -29.951)" fill="#fff" fill-rule="evenodd"/>
    <path id="Path_155" data-name="Path 155" d="M1429.558,1703.679l-19.218.015,0-5.189c3.415-.4,8.724-.083,12.349-.089,1.913,0,3.942-.407,4.862,1.174Z" transform="translate(-1408.085 -1581.34)" fill="#ffce29" fill-rule="evenodd"/>
    <path id="Path_156" data-name="Path 156" d="M1130.2,708.447c-4.561-3.915-6.478-8.691-11.866-3.486l-10.005,10.011c-1.235,1.187-5.722,6.068-6.757,6.506l-.585-.471c.581-1.217,10.167-10.45,11.1-11.375,1.776-1.76,10.116-10.4,11.338-11.142l8.41,8.4-1.635,1.561Z" transform="translate(-1089.06 -650.386)" fill="#ffce29" fill-rule="evenodd"/>
    <path id="Path_157" data-name="Path 157" d="M1380.026,1301.484l-22.865-.007.013-2.828,22.848.011Z" transform="translate(-1354.889 -1209.212)" fill="#ffce29" fill-rule="evenodd"/>
    <path id="Path_158" data-name="Path 158" d="M1493.125,1373.28l0,10.155-4.785-.007v-11.653l4.782-.094Z" transform="translate(-1477.025 -1277.213)" fill="#ffce29" fill-rule="evenodd"/>
    <path id="Path_159" data-name="Path 159" d="M1125.135,908.672c-1.8,3.5-8.523,5.294-12.311,1.961a5.409,5.409,0,0,1,1.905-1.939c3.356,1.111,4.98,1.445,7.532-.929,3.273-3.045,1.206-6.538.99-7.874l1.029-.781c.475,1.8,1.3,2.225,1.413,4.762.133,3.02-1.018,4.26-.558,4.8Z" transform="translate(-1083.74 -837.189)" fill="#ffce29" fill-rule="evenodd"/>
    <path id="Path_160" data-name="Path 160" d="M1440.164,1600.492l-13.678.033.038-3.208c1.944-.11,13.159-.419,14.009.4.569.741-.193,2.215-.369,2.777Z" transform="translate(-1420.378 -1487.172)" fill="#ffce29" fill-rule="evenodd"/>
    <path id="Path_161" data-name="Path 161" d="M1381.826,1683.965l-2.005-4.089c-.92-1.581-2.948-1.177-4.861-1.174-3.625.006-8.934-.312-12.349.089l.026-1.661,18.824.013a21.926,21.926,0,0,0,1.338,3.912,18.522,18.522,0,0,0,2.316,2.885l-3.286.026Z" transform="translate(-1360.352 -1561.626)" fill="#fff" fill-rule="evenodd"/>
    <path id="Path_162" data-name="Path 162" d="M986.845,1063.265l-.784-.05c1.16-1.119,2.521-5.328,2.913-6.768a28.873,28.873,0,0,0-.521-16.674c-.624-1.716-1.988-5.425-3.251-6.192-1.97-.539-2.232.444-3.173,1.382a24.485,24.485,0,0,1-2.505,1.8,3.373,3.373,0,0,1-.783-1.2c3.065-.879,4.847-4.613,5.507-5.3,3.31,3.043,6.033,10.419,6.54,15.473a28.7,28.7,0,0,1-.671,9.778c-.574,2.248-1.978,6.527-3.27,7.744Z" transform="translate(-939.736 -959.316)" fill="#fff" fill-rule="evenodd"/>
    <path id="Path_163" data-name="Path 163" d="M1403.011,1580.066c.175-.562.937-2.036.368-2.777-.85-.818-12.065-.509-14.009-.4l.02-1.66,16.752,0c-.75,1.773-1.473,2.39-1.706,4.829l-1.426,0Z" transform="translate(-1383.224 -1466.745)" fill="#fff" fill-rule="evenodd"/>
    <path id="Path_164" data-name="Path 164" d="M1488.908,1086.177l-2.877,2.964-3.891-3.9c.9-.986,1.938-1.884,2.774-2.871l3.994,3.807Z" transform="translate(-1472.379 -1007.828)" fill="#fff" fill-rule="evenodd"/>
    <path id="Path_165" data-name="Path 165" d="M992.605,589.882a36.4,36.4,0,0,1-4.243-4.067c-1.026-.989-3.209-3.529-4.4-4.087l1.266-1.379c2.087,1.17,6.3,6.641,8.5,8.15C993.352,589.431,993.287,589.351,992.605,589.882Z" transform="translate(-942.887 -540.382)" fill="#fff" fill-rule="evenodd"/>
    <path id="Path_166" data-name="Path 166" d="M1084.548,678.507a12.808,12.808,0,0,1-2.885,3.072,29.92,29.92,0,0,1-2.393-2.131c.374-.969.589-.977,1.333-1.69a7.927,7.927,0,0,1,1.579-1.359l2.365,2.107Z" transform="translate(-1040.273 -629.817)" fill="#fff" fill-rule="evenodd"/>
    <path id="Path_167" data-name="Path 167" d="M1167.228,946.817c.088-.724.284-.7.871-1.278.506-.5.808-.8,1.308-1.3a14.74,14.74,0,0,1,2.7-2.512c1.674,2.733-1.417,5.992-4.876,5.087Z" transform="translate(-1134.355 -876.874)" fill="#fff" fill-rule="evenodd"/>
    <path id="Path_168" data-name="Path 168" d="M1009.361,608.533l-.532.8c-.952-.4-7.313-7.062-8.6-8.322.158-.626-.01-.3.486-.634,1.193.557,3.376,3.1,4.4,4.087a36.341,36.341,0,0,0,4.243,4.067Z" transform="translate(-959.643 -559.032)" fill="#ffce29" fill-rule="evenodd"/>
    <path id="Path_169" data-name="Path 169" d="M1096.248,897.685c-.459-.54.691-1.78.558-4.8-.111-2.537-.939-2.961-1.413-4.763l.808-.812a7.538,7.538,0,0,1,1.815,5.317C1097.975,894.528,1097.337,896.725,1096.248,897.685Z" transform="translate(-1054.853 -826.202)" fill="#fff" fill-rule="evenodd"/>
  </g>
</svg>
