<svg id="Group_247" data-name="Group 247" xmlns="http://www.w3.org/2000/svg" width="97.232" height="106.773" viewBox="0 0 97.232 106.773">
  <g id="Group_246" data-name="Group 246">
    <path id="Path_126" data-name="Path 126" d="M50,6.652q-2.892,0-5.783,0a5.086,5.086,0,0,0-2.532.354,3.42,3.42,0,0,0-1.5,1.421A4.331,4.331,0,0,0,39.8,9.48c-.043.084-.548.046-.658.046H23.922c-1.969,0-3.082-.141-4.69,1.13a3.8,3.8,0,0,0-.373.344,4.909,4.909,0,0,0-1.369,3.728V66.947c-.12-.074-6.5-6.475-6.831-6.8a5.4,5.4,0,0,0-2.7-1.876,4.312,4.312,0,0,0-3.608.657,29.952,29.952,0,0,0-2.334,2.238A5.67,5.67,0,0,0,.158,63.849a4.317,4.317,0,0,0,.657,3.643,9.475,9.475,0,0,0,1.1,1.173c.386.384.752.752,1.137,1.137L17.289,84.038c.271.271.2.2.2.929V100.91a8.908,8.908,0,0,0,.134,2.146,4.853,4.853,0,0,0,.705,1.593l.365.476a4.759,4.759,0,0,0,2.258,1.449,6.725,6.725,0,0,0,2.08.207H91.395a5.673,5.673,0,0,0,3.72-.84,4.868,4.868,0,0,0,1.929-2.643,6.775,6.775,0,0,0,.2-2.09v-86.6a4.858,4.858,0,0,0-1.173-3.386,4.553,4.553,0,0,0-1.238-1.036c-1.38-.785-2.363-.657-3.928-.657H74.947A4.5,4.5,0,0,0,74.5,8.344a3.4,3.4,0,0,0-.747-.884,3.563,3.563,0,0,0-1.033-.6,3.729,3.729,0,0,0-1.44-.209H66.384a15.488,15.488,0,0,1-1.647-.012,7.4,7.4,0,0,0-12.4-4.651,8.074,8.074,0,0,0-.831.9A7.4,7.4,0,0,0,50,6.653Z" transform="translate(-0.008 -0.006)" fill-rule="evenodd"/>
    <path id="Path_127" data-name="Path 127" d="M426.875,348.68c0-.511-.078-1.107.488-1.319a10.09,10.09,0,0,1,1.78-.055h52.841c.553,0,1.287-.1,1.608.227s.215,1.053.215,1.584v.914a1.346,1.346,0,0,1-.114.793c-.29.467-.794.362-1.437.362q-26.434,0-52.874,0c.065.135,3.042,3.073,3.236,3.253a1.835,1.835,0,0,1,.4.91c.2.67.416,1.337.615,2,.8,2.686,1.662,5.378,2.449,7.957a1.485,1.485,0,0,1,.116,1.042.78.78,0,0,1-.834.442c-.348-.061-9.043-2.783-9.966-3.06a6.677,6.677,0,0,1-1.421-.507c-.229-.218-.16-.257-.259-.408a3.726,3.726,0,0,0-.318-.325c-.189-.189-.893-.922-1-.982v8.066h54.33v-9.639c0-.525-.063-.812.253-1.125.273-.27.708-.2,1.15-.2l9.676-.031V286.82H472.716a23.9,23.9,0,0,1-.036,2.546.773.773,0,0,1-.754.543c-.429.013-.879,0-1.31,0H439.6c-.428,0-.858.005-1.285,0a.771.771,0,0,1-.792-.53c-.1-.312.02-2.048-.042-2.553l-15.07-.006c-.046.205-.012,16.571-.012,16.571V343.8c0,.528-.054.371.306.732l3.893,3.892a1.4,1.4,0,0,0,.281.254Z" transform="translate(-397.74 -270.085)" fill="#fff" fill-rule="evenodd"/>
    <path id="Path_128" data-name="Path 128" d="M381.753,193.767h15.842a.775.775,0,0,1,.791.816v73.255c0,.437-.25.61-.568.965l-2.617,2.821c-.355.4-.792.813-1.163,1.185-.259.258-.513.536-.783.775l-.78.777c-.424.4-.963.943-1.394,1.326-.076.068-.122.134-.195.2l-3.242,2.986c-.931.93-.819.743-2.382.743h-52.89c-.519,0-1.038,0-1.557,0a.862.862,0,0,1-.618-.159.742.742,0,0,1-.3-.5c-.04-.292-.009-5.773-.009-6.228v-3.88c0-.442.054-.361-.183-.6-.507-.505-3.786-3.822-3.9-3.878v14.237a12.97,12.97,0,0,0,.111,2.725,3.317,3.317,0,0,0,3.244,2.465H399.1a3.261,3.261,0,0,0,2.35-.936,3.326,3.326,0,0,0,1.011-2.3V192.878a3.322,3.322,0,0,0-3.262-3.238H381.751v4.128Z" transform="translate(-306.778 -178.576)" fill="#ef6331" fill-rule="evenodd"/>
    <path id="Path_129" data-name="Path 129" d="M707.489,43.328H739.63c0-1.359,0-2.719,0-4.078s.024-2.744,0-4.1a1.889,1.889,0,0,0-.642-1.421,2.046,2.046,0,0,0-1.569-.489h-6.154c-.673,0-1.409.128-1.707-.337-.181-.282-.12-.5-.149-.867a5.865,5.865,0,0,0-9.006-4.511,6.05,6.05,0,0,0-1.125.927A5.884,5.884,0,0,0,717.711,32a1.932,1.932,0,0,1-.144.889c-.308.475-1.032.345-1.7.345h-6.154a2.034,2.034,0,0,0-1.58.478,1.937,1.937,0,0,0-.645,1.406c-.021,1.361,0,2.741,0,4.1s-.008,2.736,0,4.1Z" transform="translate(-666.201 -25.048)" fill="#ffce29" fill-rule="evenodd"/>
    <path id="Path_130" data-name="Path 130" d="M329.9,250.967c-.033-6.157,0-12.323,0-18.481V195.463c0-.748-.162-1.57.485-1.825a15.744,15.744,0,0,1,2.269-.053h12.728a9.956,9.956,0,0,0,1.15-.012v-4.1c-.2-.041-5.034-.012-5.376-.012H330.383a6.587,6.587,0,0,0-2.464.23,3.272,3.272,0,0,0-1.516,1.2,3.43,3.43,0,0,0-.587,2.1v51.284c0,.352-.053,2.532.029,2.66l2.693,2.695C328.725,249.817,329.762,250.9,329.9,250.967Z" transform="translate(-306.79 -178.394)" fill="#ef6331" fill-rule="evenodd"/>
    <path id="Path_131" data-name="Path 131" d="M499.7,532.449a.768.768,0,0,0-.553.4,1.931,1.931,0,0,0-.089.845c0,.588-.04,1.33,0,1.9.057.736.711.727,1.176.727h54.175c.573,0,1.229.127,1.492-.418a1.953,1.953,0,0,0,.084-.849c0-.609.031-1.3,0-1.9a.764.764,0,0,0-.345-.588,1.415,1.415,0,0,0-.834-.13H501.574a16.481,16.481,0,0,0-1.873.018Z" transform="translate(-469.926 -501.348)" fill-rule="evenodd"/>
    <path id="Path_132" data-name="Path 132" d="M499.828,1059.673c-.6.156-.586.632-.586,1.295,0,.322-.017,1.683.009,1.884a.764.764,0,0,0,.373.571,1.615,1.615,0,0,0,.848.11h53.236a15.649,15.649,0,0,0,1.872-.024c.695-.165.593-.835.593-1.28l0-1.9a.724.724,0,0,0-.368-.571,1.567,1.567,0,0,0-.859-.116H501.708A15.555,15.555,0,0,0,499.828,1059.673Z" transform="translate(-470.108 -997.805)" fill-rule="evenodd"/>
    <path id="Path_133" data-name="Path 133" d="M499.817,796.2c-.674.182-.578.837-.578,1.3,0,.32-.018,1.69.01,1.889a.745.745,0,0,0,.373.564,1.835,1.835,0,0,0,.87.105H553.7a15.332,15.332,0,0,0,1.89-.027.769.769,0,0,0,.511-.427,9.176,9.176,0,0,0,.065-1.808c0-.274.026-.7-.005-.956a.78.78,0,0,0-.373-.562,1.794,1.794,0,0,0-.876-.1H501.7a17.511,17.511,0,0,0-1.888.023Z" transform="translate(-470.105 -749.714)" fill-rule="evenodd"/>
    <path id="Path_134" data-name="Path 134" d="M157.89,1156.107l19.81,19.815a5,5,0,0,0,.506-.488c.2-.2,1.461-1.42,1.512-1.545l-19.8-19.79c-.122.046-1.331,1.3-1.526,1.494a5.444,5.444,0,0,0-.5.514Z" transform="translate(-148.678 -1086.761)" fill="#fff" fill-rule="evenodd"/>
    <path id="Path_135" data-name="Path 135" d="M119.72,1208.295c4.919,4.963,9.918,9.93,14.867,14.87l4.325,4.325c.21.211.432.416.628.628l1.138-1.127c-.712-.668-1.748-1.744-2.475-2.475-4.117-4.14-8.278-8.252-12.395-12.394-.827-.832-1.639-1.645-2.471-2.472s-1.647-1.664-2.483-2.481l-1.134,1.125Z" transform="translate(-112.735 -1136.735)" fill="#ffce29" fill-rule="evenodd"/>
    <path id="Path_136" data-name="Path 136" d="M29.142,1031.6l6.449-6.444a28.109,28.109,0,0,0-2.219-2.136,2.777,2.777,0,0,0-3.286.182,4.558,4.558,0,0,0-.366.351c-.13.13-.24.242-.371.37-.357.355-1.962,1.933-2.169,2.182a2.853,2.853,0,0,0-.593,2.241,3.1,3.1,0,0,0,1.087,1.806c.188.188,1.366,1.394,1.468,1.448Z" transform="translate(-25.001 -962.904)" fill="#ffce29" fill-rule="evenodd"/>
    <path id="Path_137" data-name="Path 137" d="M211.15,1117.109c.063.118,4.869,4.889,4.948,4.968,1.657,1.659,3.3,3.3,4.955,4.956l7.427,7.427c.153.153,2.381,2.414,2.493,2.474l1.116-1.109c-.059-.1-1.059-1.077-1.231-1.249l-16.1-16.1c-.418-.417-.817-.819-1.236-1.236-.172-.171-1.157-1.185-1.257-1.238Z" transform="translate(-198.83 -1050.885)" fill="#ffce29" fill-rule="evenodd"/>
    <path id="Path_138" data-name="Path 138" d="M525.8,1087.138h53.842v-.8H525.8Z" transform="translate(-495.121 -1022.955)" fill="#ffce29" fill-rule="evenodd"/>
    <path id="Path_139" data-name="Path 139" d="M525.8,559.32l.007.686h53.827c.023-.193.009-.572.009-.8H525.8Z" transform="translate(-495.121 -526.582)" fill="#ffce29" fill-rule="evenodd"/>
    <path id="Path_140" data-name="Path 140" d="M525.8,823.662h53.843v-.792H525.8Z" transform="translate(-495.121 -774.858)" fill="#ffce29" fill-rule="evenodd"/>
    <path id="Path_141" data-name="Path 141" d="M525.79,1350.711h53.843v-.792H525.8Z" transform="translate(-495.112 -1271.156)" fill="#ffce29" fill-rule="evenodd"/>
    <path id="Path_142" data-name="Path 142" d="M1380.17,1552.126c.23-.159,1.349-1.232,1.648-1.513.092-.087.19-.151.277-.243.253-.269.564-.524.828-.778l1.619-1.569c.885-.889,1.774-1.731,2.651-2.663l1.532-1.654-8.555-.006v8.426Z" transform="translate(-1299.641 -1453.629)" fill="#ffce29" fill-rule="evenodd"/>
    <path id="Path_143" data-name="Path 143" d="M483.51,1486.707l5.5,1.687,1.973-1.981c-.011-.219-1.094-3.619-1.253-4.141-.069-.227-.14-.454-.208-.682a6.445,6.445,0,0,0-.214-.68c-.121.078-4.64,4.626-5.072,5.057A9.176,9.176,0,0,0,483.51,1486.707Z" transform="translate(-455.299 -1394.503)" fill="#fff" fill-rule="evenodd"/>
    <path id="Path_144" data-name="Path 144" d="M922.075,62.83c-2.932.345-3.638,3.363-3.264,4.085.241.467.674.414,1.087.414h4.5a4.5,4.5,0,0,0,1.414-.088c.709-.351.351-1.617.07-2.255a3.754,3.754,0,0,0-3.8-2.157Z" transform="translate(-865.115 -59.14)" fill="#444242" fill-rule="evenodd"/>
    <path id="Path_145" data-name="Path 145" d="M89.81,1092.355c.156.217.48.438.628.651.11-.058,3.068-3.049,3.238-3.218l2.422-2.422c.261-.261.541-.57.808-.806-.156-.218-.477-.435-.628-.651-.106.054-.686.666-.815.8l-4.845,4.844C90.356,1091.812,90.078,1092.117,89.81,1092.355Z" transform="translate(-84.57 -1022.55)" fill="#fff" fill-rule="evenodd"/>
    <path id="Path_146" data-name="Path 146" d="M947.76,90.783h4.116a2.2,2.2,0,0,0-3.357-1.005,2.141,2.141,0,0,0-.759,1Z" transform="translate(-892.461 -84.138)" fill="#fff" fill-rule="evenodd"/>
    <path id="Path_147" data-name="Path 147" d="M606.36,1604.546l1.19.362-.357-1.2a3.73,3.73,0,0,0-.42.4A2.912,2.912,0,0,0,606.36,1604.546Z" transform="translate(-570.981 -1510.138)" fill="#ffce29" fill-rule="evenodd"/>
  </g>
</svg>
