<svg xmlns="http://www.w3.org/2000/svg" width="45.562" height="40.794" viewBox="0 0 45.562 40.794">
  <g id="Group_6515" data-name="Group 6515" transform="translate(-123 -5304.878)">
    <path id="Path_46" data-name="Path 46" d="M874.08,1564.69h15.6c1.05,0,.964-.843.964-1.778v-8.28c0-2.59.161-2.266-3.261-2.266-1.34,0-13.315-.077-13.7.056-.76.262-.568,1.3-.568,2.211v8.227C873.116,1563.807,873.01,1564.69,874.08,1564.69Zm.8-1.768,14,.012,0-8.811h-14l0,8.8Z" transform="translate(-735.209 3777.412)" fill="#fff" fill-rule="evenodd"/>
    <path id="Path_47" data-name="Path 47" d="M2075.209,1551.577c-.814.3-.592,1.338-.592,2.266,0,.718-.177,2.206.23,2.671s1.778.291,2.509.291c3.566,0,3.394.333,3.394-2.267,0-.644.141-2.256-.185-2.674-.42-.539-1.718-.34-2.514-.34a20.628,20.628,0,0,0-2.842.053Zm1.164,3.453,2.6.016.017-1.756-2.608-.009-.011,1.749Z" transform="translate(-1917.44 3778.253)" fill="#fff" fill-rule="evenodd"/>
    <path id="Path_48" data-name="Path 48" d="M382.033,1552.818c-.854.253-.639,1.249-.639,2.174,0,3.228-.353,3.1,2.592,3.071a27.382,27.382,0,0,0,2.838-.024c.9-.183.7-1.247.7-2.14,0-.625.131-2.349-.157-2.744-.245-.336-.518-.38-1.034-.377C385.547,1552.782,382.35,1552.724,382.033,1552.818Zm1.119,3.474,2.609.01.009-1.749-2.6-.017-.014,1.756Z" transform="translate(-251.366 3776.999)" fill="#fff" fill-rule="evenodd"/>
    <path id="Path_49" data-name="Path 49" d="M2077.05,1991.523a.833.833,0,0,0-.56.859c-.015.469,0,.972,0,1.445,0,3.2-.283,2.9,2.793,2.9,3.536,0,3.339.343,3.339-2.366,0-.744.156-2.154-.207-2.6-.4-.493-1.784-.314-2.545-.314A17.261,17.261,0,0,0,2077.05,1991.523Zm3.8,3.441.02-1.745-2.612-.012c-.028.356-.007.757-.008,1.1,0,.6-.157.675.393.666C2079.336,1994.963,2080.173,1995.02,2080.847,1994.964Z" transform="translate(-1919.314 3345.375)" fill="#fff" fill-rule="evenodd"/>
    <path id="Path_50" data-name="Path 50" d="M382.88,1994.575v2.778c0,1.544.992,1.191,2.805,1.191.676,0,1.353,0,2.03,0,.709,0,1.2-.1,1.288-.764a30.1,30.1,0,0,0-.067-4c-.232-.538-.8-.516-1.488-.516h-3.526c-.9.005-1.042.456-1.042,1.312Zm1.759,2.2a16.487,16.487,0,0,0,2.575-.036,6.39,6.39,0,0,0,.035-1.7l-2.6-.021Z" transform="translate(-252.852 3343.559)" fill="#fff" fill-rule="evenodd"/>
    <path id="Path_51" data-name="Path 51" d="M1093.816,1771.679a.868.868,0,0,0,.259,1.681c.914.078,2.091-.019,3.039,0,.777.015,5.722.072,6.061-.051a.876.876,0,0,0-.235-1.7c-.868-.078-2.136,0-3.048,0-.893,0-5.633-.1-6.076.073Z" transform="translate(-951.833 3561.695)" fill="#fff" fill-rule="evenodd"/>
    <path id="Path_52" data-name="Path 52" d="M1312.99,1990.938a.75.75,0,0,0-.621.475.9.9,0,0,0,.055.868c.346.521,1.066.388,1.82.388.63,0,4.046.044,4.371-.028a.877.877,0,0,0,.492-1.381c-.372-.486-1.078-.348-1.818-.349-.784,0-3.777-.1-4.3.026Z" transform="translate(-1167.361 3345.91)" fill="#fff" fill-rule="evenodd"/>
    <g id="Group_6514" data-name="Group 6514" transform="translate(123 5304.878)">
      <path id="Path_45" data-name="Path 45" d="M2.074,29.616c.1-.187.289-.956.406-1.264a12.943,12.943,0,0,1,1.884-3.3c.553-.76.809-1.345,1.744-1.723a11.575,11.575,0,0,1,3.317-.185H37.2c1.312,0,2.009-.121,2.922.575a11.6,11.6,0,0,1,1.513,1.958,11.33,11.33,0,0,1,2.024,4.9.864.864,0,0,0,.72.639.926.926,0,0,0,.193.007c.272-.03.123-.007.2-.07,1.143-.138.332-2.345.059-3.114a14.555,14.555,0,0,0-2.306-4.155,10.567,10.567,0,0,0-.934-1.2,4.459,4.459,0,0,0-3.029-1.3l-.02-2.172a4.9,4.9,0,0,0,1.7-1.013,4.6,4.6,0,0,0,1.082-1.639c.248-.639.5-1.744,0-2.211-.4-.373-1.858-.23-2.517-.23-3.609,0-7.277.064-10.879,0-.013-.215.111-.813.11-1.2-.006-1.962.055-11.618-.009-12.127A.91.91,0,0,0,27.41.062C27.047-.033,18.32.03,16.584.035c-.534,0-.8.017-1.058.334A.907.907,0,0,0,15.49,1.4c.186.277.339.488.552.782.389.537.747,1.069,1.128,1.595a1.091,1.091,0,0,1,.354.961l.017,8.814a3.4,3.4,0,0,1,.092.564c-3.62.034-7.257,0-10.879,0-.661,0-2.118-.144-2.515.233-.8.757.133,3.013,1.076,3.847a5,5,0,0,0,1.7,1.013l0,2.172c-2.294.187-2.943,1.094-3.957,2.471C-.254,28.352.009,30.536.008,35.777a4.725,4.725,0,0,0,.96,3.329c1.724,2.064,3.679,1.651,6.908,1.651H37.792c2.743,0,5.17.5,6.872-1.742a4.831,4.831,0,0,0,.889-3.4,12.642,12.642,0,0,0-.06-2.095A.89.89,0,0,0,44.08,33.2c-.625.58-.034,2.694-.385,3.887a2.62,2.62,0,0,1-2.376,1.91c-1.331.083-2.917.007-4.276.007H7.128c-2.048,0-4.065.4-5.046-1.384-.462-.842-.319-2.821-.319-3.977,0-.648.058-1.6-.007-2.2l.039-.07c0-.009.013-.027.016-.039l.1-.774c.064-.316.124-.624.167-.939Zm17.2-18.81a12.228,12.228,0,0,0,1.7-.346,7.468,7.468,0,0,1,3.526.316,3.394,3.394,0,0,0,1.77-.106l.01-8.883-8.324,0a13.728,13.728,0,0,0,1.057,1.544,4.034,4.034,0,0,1,.268,2.268c0,1.726.037,3.493,0,5.211Zm.015,1.77c-.112.809.078,1.511.872,1.542,1.2.047,3.819.013,5.128,0,.984-.009,1-.692.985-1.607a9.569,9.569,0,0,1-1.838.022c-.6-.067-1.072-.269-1.62-.35a11.182,11.182,0,0,0-3.528.392ZM39.68,15.883l-33.8-.01a2.464,2.464,0,0,0,.952,1.289,2.925,2.925,0,0,0,1.9.476H36.777a2.974,2.974,0,0,0,1.92-.455,2.373,2.373,0,0,0,.984-1.3ZM8.771,21.155l28.017.007V19.407L8.773,19.4l0,1.756Z" transform="translate(-0.004 -0.01)" fill="#fff" fill-rule="evenodd"/>
      <path id="Path_53" data-name="Path 53" d="M1312.476,218.99a.878.878,0,0,0-.212,1.583,7,7,0,0,0,2.466.1.88.88,0,0,0,.239-1.575A6.369,6.369,0,0,0,1312.476,218.99Z" transform="translate(-1289.938 -215.407)" fill="#fff" fill-rule="evenodd"/>
    </g>
    <path id="Path_54" data-name="Path 54" d="M1366.476,439.654a.871.871,0,0,0-.408,1.389.91.91,0,0,0,.782.291,4.242,4.242,0,0,0,1.093-.034.882.882,0,0,0-.395-1.7,3.375,3.375,0,0,0-1.073.054Z" transform="translate(-1220.076 4872.338)" fill="#fff" fill-rule="evenodd"/>
  </g>
</svg>
