<svg xmlns="http://www.w3.org/2000/svg" width="49.666" height="38.355" viewBox="0 0 49.666 38.355">
  <path id="Path_55" data-name="Path 55" d="M22.791,35.057a2.4,2.4,0,0,1,.107-1.115,1.591,1.591,0,0,1,.187-.383,2.353,2.353,0,0,1,1.284-.992,2.323,2.323,0,0,1,.5-.12c.727-.1,3.623-.051,4.555-.051v4.532H25.1a2.9,2.9,0,0,1-.762-.186,2.278,2.278,0,0,1-.773-.426,1.343,1.343,0,0,1-.253-.243,2.282,2.282,0,0,1-.4-.616c-.033-.093-.015-.107-.054-.2-.046-.115-.064-.04-.064-.195Zm12.618,1.871H31.284c-.113,0-.147-.029-.147-.125V32.521c0-.1.034-.125.147-.125a44.041,44.041,0,0,1,4.613.085c.122.026.067.017.11.032l.065.028a2.543,2.543,0,0,1,.674.3,1.966,1.966,0,0,1,.963,1.305,2.043,2.043,0,0,1-.117,1.387c-.041.072-.049.1-.089.174a2.388,2.388,0,0,1-1.615,1.127,1.924,1.924,0,0,1-.481.092Zm5.155-3.035,3.338-2.87c.176-.16.236-.1.3-.29.271.005.227.046.577.343l1.307,1.1.028.018a8.485,8.485,0,0,1,1.617,1.5,1.993,1.993,0,0,1,.252,1.283,2.3,2.3,0,0,1-.5.987,3.29,3.29,0,0,1-.71.6,2.993,2.993,0,0,1-.73.3,2.329,2.329,0,0,1-.719.1,3.253,3.253,0,0,1-1.324-.275,3.218,3.218,0,0,1-.665-.476c-.035-.027-.091-.062-.108-.075l-.863-.724c-.276-.205-1.651-1.342-1.791-1.519Zm-19.491.749a4.737,4.737,0,0,0,.244,1.29c.222.5.56.885.591,1H4.674a3.4,3.4,0,0,1-1.257-.141c-.077-.025-.162-.055-.242-.086l-.1-.043A2.331,2.331,0,0,1,1.63,34.641c0-2.493-.188-2.248.491-2.245H21.907c-.023.082-.4.6-.575.968A4.58,4.58,0,0,0,21.072,34.641ZM1.63,30.858V17.719c0-.1.034-.125.147-.125H25.1V30.983H1.778c-.113,0-.147-.029-.147-.125Zm36.724-4.2c1.332,0,2.037.772,3.017,1.6l.941.783.022.023.024.021a4.876,4.876,0,0,1,.71.6l-1.4,1.227-.025.02L41.571,31c-.559.538-1.375,1.138-1.917,1.661l-.1.085-.024.021-.2.124a9.967,9.967,0,0,1-.871-.717l-.884-.707c-1.05-.895-2.052-1.45-1.882-2.695.059-.432,0-.347.192-.711a2.854,2.854,0,0,1,1.12-1.089,3.075,3.075,0,0,1,1.343-.318ZM1.63,16.056a4.345,4.345,0,0,1,.434-1.919A2.938,2.938,0,0,1,2.6,13.3c.076-.083.1-.136.179-.222s.127-.107.207-.2a3.427,3.427,0,0,1,.646-.534l1.311-1.384a4.985,4.985,0,0,0,.66-1.27c.091-.315.064-.034.1-.288a.848.848,0,0,1,.069-.274A16.686,16.686,0,0,0,5.9,6.036H20.827a14.735,14.735,0,0,0,.088,2.628c.02.112,0,.216.012.322s.066.18.093.3a1.665,1.665,0,0,0,.073.271c0,.008.055.114.057.118a4.353,4.353,0,0,0,.47,1.016c.041.068.046.066.09.132l.224.309a5.4,5.4,0,0,0,.834.915l.822.676c.075.064.125.1.2.166.044.041.054.055.089.091l.068.067A4.114,4.114,0,0,1,25,15.059a6.675,6.675,0,0,1,.1,1.081H1.778c-.08,0-.147-.025-.147-.083ZM7.325,1.5H9.044V4.581H7.325V1.5ZM17.685,4.456V1.629c0-.1.034-.125.147-.125h1.62V4.581h-1.62c-.113,0-.147-.029-.147-.125Zm-3.486,0V1.629c0-.1.034-.125.147-.125h1.62V4.581h-1.62c-.113,0-.147-.029-.147-.125Zm-8.69.125H4.036V1.5H5.509c.113,0,.147.029.147.125V4.456c0,.1-.034.125-.147.125Zm17.184,0H21.121V1.5h1.473c.113,0,.147.029.147.125a27.255,27.255,0,0,1-.049,2.952Zm-11.93-.208V1.629c0-.1.034-.125.147-.125h1.62V4.581H10.811A.523.523,0,0,1,10.762,4.373ZM2.367.631V5.412c0,.419.541.624.982.624h.835V8.572c0,.149-.041.108-.079.224a2.956,2.956,0,0,1-.24.753l-.22.437a6.774,6.774,0,0,1-.915,1.1l-1.22,1.046-.023.022-.75.987a2.111,2.111,0,0,0-.122.188,6.632,6.632,0,0,0-.488,1.167c-.038.116,0,.2-.027.31s-.09.1-.09.257V35.224l.749,1.569c.054.055.058.045.115.11s.065.08.126.143l.044.046.023.022c.036.036.009.008.045.045l.487.378.027.019.026.019a4.021,4.021,0,0,0,1.411.634c.646.117.548.063,1.158.142.566.073,17.834.068,18.335,0l1.108-.142a2.128,2.128,0,0,0,.206-.075c.211,0-.022,0,.18.055.131.036.138.012.25.037a1.237,1.237,0,0,0,.453.073c.1.006.336.032.48.051.749.1,8.2.033,9.584.033.465,0,.773-.053,1.18-.081.277-.019.033-.01.218-.065a3.658,3.658,0,0,0,.8-.235,5.5,5.5,0,0,0,1.106-.643l.028-.018.35-.327.023-.022.415-.522a3.434,3.434,0,0,0,.172-.312c.072-.129.017,0,.075-.145.035-.087.044-.1.077-.184a2.2,2.2,0,0,0,.168-.772,1.7,1.7,0,0,1,.541.373l.023.022.64.539c.433.324.785.645,1.19.988.11.093.183.157.294.25a4.751,4.751,0,0,0,1.183.745c.077.033.12.049.194.085a2.569,2.569,0,0,0,.893.242,3.832,3.832,0,0,0,.492.082h.785a1.714,1.714,0,0,0,.4-.075c.085-.012.145,0,.227-.016s.126-.047.216-.066a2.169,2.169,0,0,0,.376-.1,1.153,1.153,0,0,0,.164-.069c.075-.036.117-.052.194-.085a3.908,3.908,0,0,0,1.223-.794l.023-.022a3.71,3.71,0,0,0,.993-1.4l.111-.363a2.786,2.786,0,0,0,.009-1.257l-.068-.358a4.715,4.715,0,0,0-.325-.764,4.6,4.6,0,0,0-.819-.928l-.025-.021-.125-.1c-.049-.037-.048-.026-.109-.074L48,31.754l-.025-.02-1.555-1.3c-.079-.066-.1-.075-.184-.135l-.344-.291-.025-.021-2.137-1.766c-.512-.381-.973-.866-1.487-1.235-.05-.036-.037-.022-.082-.055l-.1-.083-.6-.493a3.669,3.669,0,0,0-.862-.6c-.07-.036-.155-.067-.228-.1l-.1-.041A4.8,4.8,0,0,0,37.54,25.3a5.571,5.571,0,0,0-1.167.342,4.42,4.42,0,0,0-.913.558l-.027.019-.714.685a3.572,3.572,0,0,0-.649,1.239l-.136.8a3.794,3.794,0,0,0,.245,1.123c.107.324.428.681.492.914H27.356c-.811,0-.589.131-.589-1.58V17.013A8.175,8.175,0,0,0,26.5,14.12a6.03,6.03,0,0,0-1.881-2.564l-.909-.769A4.447,4.447,0,0,1,23,9.806c-.641-1.075-.458-2.6-.458-3.77.572,0,1.325.107,1.681-.323.049-.06.136-.15.136-.217V.59c0-.3-.592-.54-1.031-.54H3.446a1.162,1.162,0,0,0-.933.333.883.883,0,0,0-.147.249Z" transform="translate(-0.01 -0.049)" fill="#fff" fill-rule="evenodd"/>
</svg>
