<svg xmlns="http://www.w3.org/2000/svg" width="17.175" height="22.655" viewBox="0 0 17.175 22.655">
  <g id="reporting" transform="translate(-56)">
    <g id="Group_6559" data-name="Group 6559" transform="translate(56)">
      <path id="Path_428" data-name="Path 428" d="M70.85.783H66.14a1.931,1.931,0,0,0-3.106,0h-4.71A2.327,2.327,0,0,0,56,3.107V20.331a2.327,2.327,0,0,0,2.324,2.324H70.85a2.327,2.327,0,0,0,2.324-2.324V3.107A2.327,2.327,0,0,0,70.85.783ZM64.587.734a1.2,1.2,0,0,1,1.2,1.2v.391a.367.367,0,0,0,.367.367h1.566a.416.416,0,1,1,0,.832H61.456a.416.416,0,1,1,0-.832h1.566a.367.367,0,0,0,.367-.367V1.933A1.2,1.2,0,0,1,64.587.734ZM61.456,4.257h6.263a1.151,1.151,0,0,0,1.15-1.15c0-.008,0-.016,0-.024H70.85a.025.025,0,0,1,.024.024V20.331a.025.025,0,0,1-.024.024H58.324a.025.025,0,0,1-.024-.024V3.107a.025.025,0,0,1,.024-.024h1.982c0,.008,0,.016,0,.024A1.151,1.151,0,0,0,61.456,4.257ZM72.441,20.331a1.592,1.592,0,0,1-1.59,1.59H58.324a1.592,1.592,0,0,1-1.59-1.59V3.107a1.592,1.592,0,0,1,1.59-1.59H62.7a1.929,1.929,0,0,0-.046.416v.024h-1.2a1.147,1.147,0,0,0-.863.391H58.324a.759.759,0,0,0-.758.758V20.331a.759.759,0,0,0,.758.758H70.85a.759.759,0,0,0,.758-.758V3.107a.759.759,0,0,0-.758-.758H68.582a1.147,1.147,0,0,0-.863-.391h-1.2V1.933a1.933,1.933,0,0,0-.046-.416H70.85a1.592,1.592,0,0,1,1.59,1.59Z" transform="translate(-56 0)" fill="#ef6331"/>
      <path id="Path_429" data-name="Path 429" d="M224.367,33.517a.367.367,0,0,0,.367-.367v-.783a.367.367,0,1,0-.734,0v.783A.367.367,0,0,0,224.367,33.517Z" transform="translate(-215.78 -30.434)" fill="#444242"/>
      <path id="Path_430" data-name="Path 430" d="M216.367,160.734h4.7a.367.367,0,1,0,0-.734h-4.7a.367.367,0,1,0,0,.734Z" transform="translate(-208.171 -152.171)" fill="#444242"/>
      <path id="Path_431" data-name="Path 431" d="M136.107,144.891a.367.367,0,0,0,0,.519l.783.783a.367.367,0,0,0,.519,0l1.566-1.566a.367.367,0,0,0-.519-.519l-1.306,1.306-.523-.523A.367.367,0,0,0,136.107,144.891Z" transform="translate(-132.085 -136.954)" fill="#444242"/>
      <path id="Path_432" data-name="Path 432" d="M216.367,240.734h4.7a.367.367,0,1,0,0-.734h-4.7a.367.367,0,1,0,0,.734Z" transform="translate(-208.171 -228.257)" fill="#444242"/>
      <path id="Path_433" data-name="Path 433" d="M138.456,224.108l-1.306,1.306-.523-.523a.367.367,0,1,0-.519.519l.783.783a.367.367,0,0,0,.519,0l1.566-1.566a.367.367,0,0,0-.519-.519Z" transform="translate(-132.086 -213.04)" fill="#444242"/>
      <path id="Path_434" data-name="Path 434" d="M216.367,320.734h4.7a.367.367,0,1,0,0-.734h-4.7a.367.367,0,1,0,0,.734Z" transform="translate(-208.171 -304.342)" fill="#444242"/>
      <path id="Path_435" data-name="Path 435" d="M138.456,304.108l-1.306,1.306-.523-.523a.367.367,0,1,0-.519.519l.783.783a.367.367,0,0,0,.519,0l1.566-1.566a.367.367,0,0,0-.519-.519Z" transform="translate(-132.086 -289.125)" fill="#444242"/>
    </g>
  </g>
</svg>
