<svg xmlns="http://www.w3.org/2000/svg" width="27" height="25" viewBox="0 0 27 25">
  <g id="Group_302" data-name="Group 302" transform="translate(0.324 0.066)">
    <rect id="Rectangle_122" data-name="Rectangle 122" width="27" height="25" rx="3" transform="translate(-0.324 -0.066)" fill="#ef6331"/>
    <path id="Icon_awesome-twitter" data-name="Icon awesome-twitter" d="M11.693,6.019c.008.116.008.232.008.347a7.548,7.548,0,0,1-7.6,7.6,7.548,7.548,0,0,1-4.1-1.2,5.526,5.526,0,0,0,.645.033,5.349,5.349,0,0,0,3.316-1.141,2.676,2.676,0,0,1-2.5-1.852,3.368,3.368,0,0,0,.5.041,2.825,2.825,0,0,0,.7-.091A2.671,2.671,0,0,1,.529,7.135V7.1a2.69,2.69,0,0,0,1.207.339A2.675,2.675,0,0,1,.91,3.869a7.592,7.592,0,0,0,5.508,2.8,3.015,3.015,0,0,1-.066-.612,2.674,2.674,0,0,1,4.623-1.828,5.259,5.259,0,0,0,1.7-.645,2.664,2.664,0,0,1-1.174,1.472,5.355,5.355,0,0,0,1.538-.413,5.742,5.742,0,0,1-1.34,1.381Z" transform="translate(6.544 3.163)" fill="#f6f6f6"/>
  </g>
</svg>
