<svg xmlns="http://www.w3.org/2000/svg" width="43.614" height="31.438" viewBox="0 0 43.614 31.438">
  <path id="Icon_zocial-cart" data-name="Icon zocial-cart" d="M-2.07,6.43a1.7,1.7,0,0,1,.495-1.256A1.7,1.7,0,0,1-.32,4.68H8.622a1.744,1.744,0,0,1,1.084.361,1.69,1.69,0,0,1,.628.97l.913,3.729H36.891l.268-.8a1.574,1.574,0,0,1,1.636-1.218,1.171,1.171,0,0,1,.495.076,1.639,1.639,0,0,1,.913.609,1.662,1.662,0,0,1,.342,1.027,2.126,2.126,0,0,1-.076.495l-4.49,14.953a1.637,1.637,0,0,1-.609.913,1.672,1.672,0,0,1-1.027.342H13.073a1.691,1.691,0,0,1-1.084-.379,1.777,1.777,0,0,1-.628-.952L7.252,8.142H-.32a1.721,1.721,0,0,1-1.237-.495A1.624,1.624,0,0,1-2.07,6.43ZM12.084,13.2l2.359,9.436H33.049l.075-.341L35.864,13.2H12.084Zm1.6,18.415a3.339,3.339,0,0,1,1.046-2.473,3.436,3.436,0,0,1,2.492-1.027,3.5,3.5,0,0,1,0,7,3.435,3.435,0,0,1-2.492-1.026A3.343,3.343,0,0,1,13.682,31.618Zm2.473-15.448h6.316v3.5H16.915Zm9.322,3.5.038-3.5h6.164l-.913,3.5Zm1.408,11.947a3.34,3.34,0,0,1,1.048-2.473,3.433,3.433,0,0,1,2.492-1.027,3.5,3.5,0,0,1,0,7,3.433,3.433,0,0,1-2.492-1.026A3.34,3.34,0,0,1,26.885,31.618Z" transform="translate(2.57 -4.18)" fill="#fff" stroke="#2d2b2b" stroke-width="1"/>
</svg>
